<?xml version="1.0" encoding="UTF-8" standalone="no"?>
<!-- Created with Inkscape (http://www.inkscape.org/) -->

<svg
   xmlns:dc="http://purl.org/dc/elements/1.1/"
   xmlns:cc="http://creativecommons.org/ns#"
   xmlns:rdf="http://www.w3.org/1999/02/22-rdf-syntax-ns#"
   xmlns:svg="http://www.w3.org/2000/svg"
   xmlns="http://www.w3.org/2000/svg"
   xmlns:xlink="http://www.w3.org/1999/xlink"
   xmlns:sodipodi="http://sodipodi.sourceforge.net/DTD/sodipodi-0.dtd"
   xmlns:inkscape="http://www.inkscape.org/namespaces/inkscape"
   width="744.09448819"
   height="1052.3622047"
   id="svg3330"
   version="1.1"
   inkscape:version="0.48.2 r9819"
   sodipodi:docname="ermin.svg"
   inkscape:export-filename="/Users/gtorok/ermin/data/ermin.png"
   inkscape:export-xdpi="90"
   inkscape:export-ydpi="90">
  <defs
     id="defs3332">
    <linearGradient
       id="linearGradient3887">
      <stop
         style="stop-color:#e71a02;stop-opacity:1;"
         offset="0"
         id="stop3889" />
      <stop
         id="stop3901"
         offset="0.28125"
         style="stop-color:#30d60b;stop-opacity:1;" />
      <stop
         id="stop3895"
         offset="0.5"
         style="stop-color:#ffff14;stop-opacity:1;" />
      <stop
         style="stop-color:#ff00d3;stop-opacity:1;"
         offset="0.8125"
         id="stop3897" />
      <stop
         style="stop-color:#5318ff;stop-opacity:1;"
         offset="1"
         id="stop3891" />
    </linearGradient>
    <linearGradient
       inkscape:collect="always"
       xlink:href="#linearGradient3887"
       id="linearGradient3893"
       x1="1.3424253"
       y1="-298.89752"
       x2="753.59564"
       y2="-298.89752"
       gradientUnits="userSpaceOnUse" />
    <linearGradient
       inkscape:collect="always"
       xlink:href="#linearGradient3887"
       id="linearGradient3985"
       gradientUnits="userSpaceOnUse"
       x1="1.3424253"
       y1="-298.89752"
       x2="753.59564"
       y2="-298.89752" />
    <linearGradient
       inkscape:collect="always"
       xlink:href="#linearGradient3887"
       id="linearGradient4003"
       gradientUnits="userSpaceOnUse"
       x1="1.3424253"
       y1="-298.89752"
       x2="753.59564"
       y2="-298.89752" />
    <linearGradient
       inkscape:collect="always"
       xlink:href="#linearGradient3887"
       id="linearGradient4016"
       gradientUnits="userSpaceOnUse"
       x1="1.3424253"
       y1="-298.89752"
       x2="753.59564"
       y2="-298.89752" />
    <linearGradient
       inkscape:collect="always"
       xlink:href="#linearGradient3887"
       id="linearGradient4018"
       gradientUnits="userSpaceOnUse"
       x1="1.3424253"
       y1="-298.89752"
       x2="753.59564"
       y2="-298.89752" />
    <linearGradient
       inkscape:collect="always"
       xlink:href="#linearGradient3887"
       id="linearGradient4021"
       gradientUnits="userSpaceOnUse"
       x1="1.3424253"
       y1="-298.89752"
       x2="753.59564"
       y2="-298.89752"
       gradientTransform="matrix(0.60407449,0,0,0.60407449,154.06829,715.93793)" />
    <linearGradient
       inkscape:collect="always"
       xlink:href="#linearGradient3887"
       id="linearGradient4024"
       gradientUnits="userSpaceOnUse"
       x1="1.3424253"
       y1="-298.89752"
       x2="753.59564"
       y2="-298.89752"
       gradientTransform="matrix(0.60407449,0,0,0.60407449,154.06829,715.93793)" />
  </defs>
  <sodipodi:namedview
     id="base"
     pagecolor="#ffffff"
     bordercolor="#666666"
     borderopacity="1.0"
     inkscape:pageopacity="0.0"
     inkscape:pageshadow="2"
     inkscape:zoom="0.98994949"
     inkscape:cx="255.08694"
     inkscape:cy="586.72406"
     inkscape:document-units="px"
     inkscape:current-layer="layer1"
     showgrid="true"
     objecttolerance="1"
     gridtolerance="1"
     guidetolerance="1"
     inkscape:window-width="1645"
     inkscape:window-height="1028"
     inkscape:window-x="32"
     inkscape:window-y="25"
     inkscape:window-maximized="0">
    <inkscape:grid
       type="xygrid"
       id="grid3338"
       empspacing="4"
       visible="true"
       enabled="true"
       snapvisiblegridlinesonly="false"
       spacingx="64px"
       spacingy="64px" />
  </sodipodi:namedview>
  <metadata
     id="metadata3335">
    <rdf:RDF>
      <cc:Work
         rdf:about="">
        <dc:format>image/svg+xml</dc:format>
        <dc:type
           rdf:resource="http://purl.org/dc/dcmitype/StillImage" />
        <dc:title></dc:title>
      </cc:Work>
    </rdf:RDF>
  </metadata>
  <g
     inkscape:label="Layer 1"
     inkscape:groupmode="layer"
     id="layer1">
    <path
       sodipodi:nodetypes="ssccccsccscsscccsccsccsccscccscccsccccccscccccscsccsccsccccscccscccsccscsscscccs"
       inkscape:connector-curvature="0"
       id="path4008"
       d="m 524.55194,386.76736 c -0.96974,0.0573 -2.00068,0.55168 -2.81272,2.01987 -2.16546,3.91518 40.39748,112.7354 40.39748,112.7354 L 450.45843,433.01681 c 0,0 -9.8856,-1.64052 -11.7417,12.06261 l 53.85702,122.32509 c 0,0 5.87085,1.95729 5.87085,-2.28416 0,-4.24144 -37.15058,-108.94106 -37.15058,-108.94106 l 127.45971,87.11887 c 0,0 7.42611,4.24367 7.11676,-3.58669 -0.30935,-7.83037 -68.24154,-151.90586 -68.24154,-151.90586 0,0 -1.46078,-1.13384 -3.07701,-1.03825 z M 402.2443,425.06284 c -0.14518,0.001 -0.29116,0.005 -0.43418,0.0188 -9.15311,0.91531 -2.73721,29.90168 -2.73721,29.90168 l 25.63541,-4.26627 c 0,0 -13.31754,-25.72358 -22.46402,-25.65429 z m 28.22161,34.20572 -28.37263,5.4933 c 0,0 52.4874,81.7601 59.63348,90.91321 7.14608,9.15311 7.79634,-2.13314 7.79634,-2.13314 z m -49.90744,7.54527 c -3.34247,0.12512 -6.16718,2.0017 -7.00349,7.43767 l -4.28515,27.76855 c 0,0 -14.81683,-21.80671 -24.40839,-24.40838 -17.63857,-4.7844 -20.12323,2.13313 -20.12323,2.13313 l 15.15849,68.2793 c -23.00286,-11.7373 -46.74026,-23.7288 -46.74026,-23.7288 0,0 24.70803,-7.01087 15.55492,-23.18136 -7.43691,-13.13853 -32.80904,-14.39469 -42.05869,-14.4034 -2.09014,-0.002 -3.30887,0.0543 -3.36016,0.0566 l 0.0378,-0.0188 c 0,0 -5.97788,-0.23371 -12.23251,2.35967 -6.13734,2.54475 -6.95629,4.85958 -6.98461,4.94586 l -0.0944,0.0378 28.59915,71.5262 c -28.83789,8.78226 -73.99913,22.95483 -73.99913,22.95483 l -10.9866,-35.99906 57.17942,-22.57729 c 0,0 3.96894,-3.65607 -2.13313,-4.26628 -6.10207,-0.6102 -58.08554,11.89272 -58.08554,11.89272 l -10.68457,-25.93745 57.48146,-26.84356 c 0,0 5.79343,-4.56831 -1.52906,-4.56831 l -66.939,16.15899 c 0,0 -9.1489,9.16662 -7.92848,15.5738 1.22041,6.40717 23.80431,94.87745 23.80431,94.87745 0,0 3.96404,9.14841 15.25288,6.09737 7.78762,-2.10475 53.93227,-24.61733 82.0975,-38.50974 L 320,684.16739 c 0,0 4.57445,3.0633 3.96424,-1.20815 -0.44567,-3.11973 -21.86943,-76.10758 -33.48838,-115.567 2.81764,-1.40107 7.73971,-3.8321 7.73971,-3.8321 0,0 7.01029,-7.00914 -3.05813,-4.56831 -1.19483,0.28965 -3.53264,0.93207 -6.60707,1.8311 -2.96894,-10.07543 -5.47442,-18.51866 -5.47442,-18.51866 l 59.84113,19.38701 15.06411,67.864 c 0,0 4.88615,4.27452 5.19126,-0.30204 0.3051,-4.57655 0.30204,-4.88923 0.30204,-4.88923 l -9.19326,-58.99165 26.73029,8.6647 c 0,0 4.58317,-1.52341 1.22703,-3.96424 -1.25812,-0.91499 -14.08405,-7.58328 -29.6374,-15.55492 l -7.41879,-47.60862 40.26534,40.26534 c 0,0 5.18513,3.05056 5.79534,-1.8311 0.61021,-4.88166 0.30203,-46.68363 0.30203,-46.68363 l 88.79895,131.49946 c 0,0 5.48363,3.0567 4.56832,-2.43517 -0.91531,-5.49187 -89.70506,-155.00174 -89.70506,-155.00174 0,0 -8.26773,-6.14746 -14.64881,-5.90861 z m -109.75278,30.95882 c 0.49173,-0.005 1.00563,-0.008 1.52906,0 7.328,0.11315 17.44136,1.18799 22.02984,5.77646 7.62759,7.6276 -21.35026,18.00898 -21.35026,18.00898 l -9.1555,-23.50228 c 0,0 2.22564,-0.21028 5.53106,-0.26428 0.45449,-0.007 0.92406,-0.014 1.4158,-0.0189 z"
       style="fill:url(#linearGradient4024);fill-opacity:1;fill-rule:nonzero;stroke:#000000;stroke-width:30.20372391000000079;stroke-linejoin:round;stroke-miterlimit:4;stroke-dasharray:none" />
    <path
       style="fill:url(#linearGradient4021);fill-opacity:1;fill-rule:nonzero;stroke:none"
       d="m 524.55194,386.76736 c -0.96974,0.0573 -2.00068,0.55168 -2.81272,2.01987 -2.16546,3.91518 40.39748,112.7354 40.39748,112.7354 L 450.45843,433.01681 c 0,0 -9.8856,-1.64052 -11.7417,12.06261 l 53.85702,122.32509 c 0,0 5.87085,1.95729 5.87085,-2.28416 0,-4.24144 -37.15058,-108.94106 -37.15058,-108.94106 l 127.45971,87.11887 c 0,0 7.42611,4.24367 7.11676,-3.58669 -0.30935,-7.83037 -68.24154,-151.90586 -68.24154,-151.90586 0,0 -1.46078,-1.13384 -3.07701,-1.03825 z M 402.2443,425.06284 c -0.14518,0.001 -0.29116,0.005 -0.43418,0.0188 -9.15311,0.91531 -2.73721,29.90168 -2.73721,29.90168 l 25.63541,-4.26627 c 0,0 -13.31754,-25.72358 -22.46402,-25.65429 z m 28.22161,34.20572 -28.37263,5.4933 c 0,0 52.4874,81.7601 59.63348,90.91321 7.14608,9.15311 7.79634,-2.13314 7.79634,-2.13314 z m -49.90744,7.54527 c -3.34247,0.12512 -6.16718,2.0017 -7.00349,7.43767 l -4.28515,27.76855 c 0,0 -14.81683,-21.80671 -24.40839,-24.40838 -17.63857,-4.7844 -20.12323,2.13313 -20.12323,2.13313 l 15.15849,68.2793 c -23.00286,-11.7373 -46.74026,-23.7288 -46.74026,-23.7288 0,0 24.70803,-7.01087 15.55492,-23.18136 -7.43691,-13.13853 -32.80904,-14.39469 -42.05869,-14.4034 -2.09014,-0.002 -3.30887,0.0543 -3.36016,0.0566 l 0.0378,-0.0188 c 0,0 -5.97788,-0.23371 -12.23251,2.35967 -6.13734,2.54475 -6.95629,4.85958 -6.98461,4.94586 l -0.0944,0.0378 28.59915,71.5262 c -28.83789,8.78226 -73.99913,22.95483 -73.99913,22.95483 l -10.9866,-35.99906 57.17942,-22.57729 c 0,0 3.96894,-3.65607 -2.13313,-4.26628 -6.10207,-0.6102 -58.08554,11.89272 -58.08554,11.89272 l -10.68457,-25.93745 57.48146,-26.84356 c 0,0 5.79343,-4.56831 -1.52906,-4.56831 l -66.939,16.15899 c 0,0 -9.1489,9.16662 -7.92848,15.5738 1.22041,6.40717 23.80431,94.87745 23.80431,94.87745 0,0 3.96404,9.14841 15.25288,6.09737 7.78762,-2.10475 53.93227,-24.61733 82.0975,-38.50974 L 320,684.16739 c 0,0 4.57445,3.0633 3.96424,-1.20815 -0.44567,-3.11973 -21.86943,-76.10758 -33.48838,-115.567 2.81764,-1.40107 7.73971,-3.8321 7.73971,-3.8321 0,0 7.01029,-7.00914 -3.05813,-4.56831 -1.19483,0.28965 -3.53264,0.93207 -6.60707,1.8311 -2.96894,-10.07543 -5.47442,-18.51866 -5.47442,-18.51866 l 59.84113,19.38701 15.06411,67.864 c 0,0 4.88615,4.27452 5.19126,-0.30204 0.3051,-4.57655 0.30204,-4.88923 0.30204,-4.88923 l -9.19326,-58.99165 26.73029,8.6647 c 0,0 4.58317,-1.52341 1.22703,-3.96424 -1.25812,-0.91499 -14.08405,-7.58328 -29.6374,-15.55492 l -7.41879,-47.60862 40.26534,40.26534 c 0,0 5.18513,3.05056 5.79534,-1.8311 0.61021,-4.88166 0.30203,-46.68363 0.30203,-46.68363 l 88.79895,131.49946 c 0,0 5.48363,3.0567 4.56832,-2.43517 -0.91531,-5.49187 -89.70506,-155.00174 -89.70506,-155.00174 0,0 -8.26773,-6.14746 -14.64881,-5.90861 z m -109.75278,30.95882 c 0.49173,-0.005 1.00563,-0.008 1.52906,0 7.328,0.11315 17.44136,1.18799 22.02984,5.77646 7.62759,7.6276 -21.35026,18.00898 -21.35026,18.00898 l -9.1555,-23.50228 c 0,0 2.22564,-0.21028 5.53106,-0.26428 0.45449,-0.007 0.92406,-0.014 1.4158,-0.0189 z"
       id="path3861"
       inkscape:connector-curvature="0"
       sodipodi:nodetypes="ssccccsccscsscccsccsccsccscccscccsccccccscccccscsccsccsccccscccscccsccscsscscccs" />
  </g>
</svg>
