<?xml version="1.0" encoding="UTF-8" standalone="no"?>
<!-- Created with Inkscape (http://www.inkscape.org/) -->

<svg
   xmlns:dc="http://purl.org/dc/elements/1.1/"
   xmlns:cc="http://creativecommons.org/ns#"
   xmlns:rdf="http://www.w3.org/1999/02/22-rdf-syntax-ns#"
   xmlns:svg="http://www.w3.org/2000/svg"
   xmlns="http://www.w3.org/2000/svg"
   xmlns:sodipodi="http://sodipodi.sourceforge.net/DTD/sodipodi-0.dtd"
   xmlns:inkscape="http://www.inkscape.org/namespaces/inkscape"
   width="744.09448819"
   height="1052.3622047"
   id="svg3330"
   version="1.1"
   inkscape:version="0.48.2 r9819"
   sodipodi:docname="ermin.svg"
   inkscape:export-filename="/Users/gtorok/ermin/data/ermin.png"
   inkscape:export-xdpi="90"
   inkscape:export-ydpi="90">
  <defs
     id="defs3332" />
  <sodipodi:namedview
     id="base"
     pagecolor="#ffffff"
     bordercolor="#666666"
     borderopacity="1.0"
     inkscape:pageopacity="0.0"
     inkscape:pageshadow="2"
     inkscape:zoom="1.4"
     inkscape:cx="467.8513"
     inkscape:cy="621.54548"
     inkscape:document-units="px"
     inkscape:current-layer="layer1"
     showgrid="true"
     objecttolerance="1"
     gridtolerance="1"
     guidetolerance="1"
     inkscape:window-width="1645"
     inkscape:window-height="1028"
     inkscape:window-x="32"
     inkscape:window-y="25"
     inkscape:window-maximized="0">
    <inkscape:grid
       type="xygrid"
       id="grid3338"
       empspacing="4"
       visible="true"
       enabled="true"
       snapvisiblegridlinesonly="false"
       spacingx="64px"
       spacingy="64px" />
  </sodipodi:namedview>
  <metadata
     id="metadata3335">
    <rdf:RDF>
      <cc:Work
         rdf:about="">
        <dc:format>image/svg+xml</dc:format>
        <dc:type
           rdf:resource="http://purl.org/dc/dcmitype/StillImage" />
        <dc:title></dc:title>
      </cc:Work>
    </rdf:RDF>
  </metadata>
  <g
     inkscape:label="Layer 1"
     inkscape:groupmode="layer"
     id="layer1">
    <rect
       style="fill:#808080;fill-opacity:1;fill-rule:nonzero;stroke:none"
       id="rect4166"
       width="382.85641"
       height="382.72339"
       x="192"
       y="221.63879" />
    <path
       style="fill:#000000;fill-opacity:1;fill-rule:nonzero;stroke:none"
       d="m 348.0203,322.38228 -5.0545,0.84826 -72.97674,37.50837 -2.10296,5.90104 2.95154,5.901 5.49724,2.95053 59.87928,-10.1055 31.62887,24.84224 -8.04293,14.34686 -14.75768,11.35947 -9.26044,12.65032 -13.90913,13.4986 -10.55173,1.69652 -8.85462,0 -8.41188,-5.90101 -3.80009,-10.14238 -3.39427,8.44584 -1.2544,10.54806 6.75163,14.30999 13.06055,14.75254 22.76373,10.95379 32.4669,8.85153 47.66729,-2.10226 31.61836,-14.75253 23.90743,-26.99718 5.1652,12.68721 8.44877,8.40894 8.44876,4.24136 10.109,-4.24136 60.72789,-60.26418 0.81165,-8.44585 -3.76319,-5.05275 -5.49724,0.44259 -54.38206,35.81181 -1.69713,-29.06252 -6.75164,-26.55461 -4.20593,-5.49531 -7.04681,-0.25818 -3.0622,-10.28992 -9.29735,-16.4122 -15.16352,-8.04013 -29.44156,-4.61019 -17.78302,3.35622 -16.04898,11.39634 -9.66628,-8.03488 -16.8712,-15.99598 z"
       id="path3340"
       inkscape:connector-curvature="0"
       sodipodi:nodetypes="ccccccccccccccccccccccccccccccccccccccccccccccc" />
    <path
       style="fill:#000000;fill-opacity:1;fill-rule:nonzero;stroke:none"
       d="m 418.84663,476.64727 42.16482,-4.63653 12.64943,2.52902 8.85462,5.90102 1.68657,8.85153 -2.10823,10.11604 -31.62359,34.56311 -8.8546,12.64507 15.60095,0 19.81747,-4.21503 11.38449,-7.16552 7.16803,2.52902 -1.26496,7.16551 -11.80613,12.22357 -30.35868,9.6945 -24.37124,0 -15.26367,-2.52899 -4.21647,-8.43003 4.21647,-9.27303 10.54121,-8.85153 24.87724,-39.19966 -9.27626,0 -26.56384,4.63652 -21.08239,0 -16.44428,-4.21503 -5.05978,2.95052 -17.28757,18.12457 -22.76899,19.38907 -20.66075,8.00854 -7.16802,-3.79352 -43.85139,-50.58019 -10.96283,2.52903 -12.22781,6.3225 -6.74638,11.80205 -1.68657,10.53755 -3.37321,7.58703 -8.01132,-0.84302 -0.42163,-16.86005 8.01131,-22.33958 15.60098,-9.69455 17.28755,-13.48806 6.74639,-7.16552 10.11955,0 4.55379,4.21503 1.77093,10.11603 2.10823,10.53755 27.82879,35.82763 5.90306,2.10751 4.63813,-10.11604 4.63814,-19.72628 4.21648,-13.57236 4.63813,-9.69453 z"
       id="path3348"
       inkscape:connector-curvature="0" />
    <path
       style="fill:#000000;fill-opacity:1;fill-rule:nonzero;stroke:none"
       d="m 409.95566,340.94538 -8.98946,-2.01923 -10.70175,-11.30771 -5.99296,-15.34618 2.14036,-26.65391 16.26663,-11.8731 16.26662,-2.26156 16.26662,2.26156 13.69821,6.21921 19.2631,35.94241 0.42809,12.11541 -6.42104,9.28849 -12.84208,6.0577 -22.68765,5.25 z"
       id="path3351"
       inkscape:connector-curvature="0" />
    <path
       style="fill:#ffffff;fill-opacity:1;fill-rule:nonzero;stroke:none"
       d="m 438.6641,275.16953 -10.11955,-0.42151 -2.5299,2.95049 -6.74637,-2.52898 -8.85461,1.686 -8.43296,8.85154 -3.37318,13.48803 3.37318,10.53757 14.75769,9.69451 14.75768,4.63653 12.22779,3.79351 4.21649,5.90101 -4.63814,7.58704 -10.96284,4.63652 -21.50405,10.11603 -15.60098,11.38054 -11.80615,23.60408 -6.74636,24.44711 -1.26495,22.76106 3.79482,26.13312 16.02264,12.22354 27.40711,0.84297 21.50406,-17.28154 16.44427,-30.34809 7.58967,-28.24064 -3.37319,-31.19111 -12.2278,-21.91809 -5.05976,-6.3225 2.52987,-8.00853 10.54121,-5.90104 4.21648,-11.38052 0.84329,-3.79352 -13.49274,-23.60407 -12.22779,-11.80208 z"
       id="path4137"
       inkscape:connector-curvature="0" />
    <path
       style="fill:#ff6600;fill-opacity:1;fill-rule:nonzero;stroke:none"
       d="m 451.73518,308.04665 11.3845,-4.63653 8.43297,-5.90103 1.26493,2.52904 -5.05978,6.32251 -9.69789,7.58702 -6.74637,-1.26451 z"
       id="path3355"
       inkscape:connector-curvature="0" />
    <path
       sodipodi:type="arc"
       style="fill:#ffeeaa;fill-opacity:1;fill-rule:nonzero;stroke:#000000"
       id="path3357"
       sodipodi:cx="391.07144"
       sodipodi:cy="306.11218"
       sodipodi:rx="7.5"
       sodipodi:ry="11.25"
       d="m 398.57144,306.11218 a 7.5,11.25 0 1 1 -2.4e-4,-0.0897"
       sodipodi:start="0"
       sodipodi:end="6.2752089"
       sodipodi:open="true"
       transform="matrix(1.5741525,0,0,1.1989377,-190.01313,-74.136862)" />
    <path
       transform="matrix(1.0119552,0,0,0.80553627,51.350266,40.176343)"
       sodipodi:open="true"
       sodipodi:end="6.2752089"
       sodipodi:start="0"
       d="m 398.57144,306.11218 a 7.5,11.25 0 1 1 -2.4e-4,-0.0897"
       sodipodi:ry="11.25"
       sodipodi:rx="7.5"
       sodipodi:cy="306.11218"
       sodipodi:cx="391.07144"
       id="path3359"
       style="fill:#ffeeaa;fill-opacity:1;fill-rule:nonzero;stroke:#000000"
       sodipodi:type="arc" />
    <path
       style="fill:#ff6600;fill-opacity:1;fill-rule:nonzero;stroke:none"
       d="m 440.3507,295.40161 18.13084,-6.74405 18.55253,-1.26449 3.79483,2.52902 -19.81745,6.32251 -11.38451,8.00853 -7.58965,0.4215 z"
       id="path3353"
       inkscape:connector-curvature="0" />
    <path
       sodipodi:type="arc"
       style="fill:#000000;fill-opacity:1;fill-rule:nonzero;stroke:none"
       id="path4129"
       sodipodi:cx="382.67856"
       sodipodi:cy="300.39789"
       sodipodi:rx="4.1071429"
       sodipodi:ry="4.1071429"
       d="m 386.7857,300.39789 a 4.1071429,4.1071429 0 1 1 -1.3e-4,-0.0328"
       sodipodi:start="0"
       sodipodi:end="6.2752089"
       sodipodi:open="true"
       transform="matrix(1.1806145,0,0,1.1802044,-33.160068,-63.55507)" />
    <path
       sodipodi:open="true"
       sodipodi:end="6.2752089"
       sodipodi:start="0"
       d="m 386.7857,300.39789 a 4.1071429,4.1071429 0 1 1 -1.3e-4,-0.0328"
       sodipodi:ry="4.1071429"
       sodipodi:rx="4.1071429"
       sodipodi:cy="300.39789"
       sodipodi:cx="382.67856"
       id="path4131"
       style="fill:#000000;fill-opacity:1;fill-rule:nonzero;stroke:none"
       sodipodi:type="arc"
       transform="matrix(1.1806145,0,0,1.1802044,-7.0178841,-67.770088)" />
    <path
       style="fill:#d3bc5f;fill-opacity:1;fill-rule:nonzero;stroke:#000000;stroke-width:1.18040943"
       d="m 328.20812,241.88602 c -41.79638,-7e-5 -47.22459,19.36274 -47.22459,19.36274 l 8.67016,12.24462 c -12.85322,7.23743 -20.57015,15.04656 -19.29568,20.8011 2.09831,9.47438 27.71237,9.83815 57.22292,0.84826 29.51052,-8.98988 51.72099,-23.94013 49.62269,-33.41451 l -0.037,-0.14757 c -1.71133,-6.89503 -16.05383,-8.88011 -35.23397,-5.86413 -4.01889,-5.35357 -10.8242,-13.83051 -13.72466,-13.83052 z"
       id="path4133"
       inkscape:connector-curvature="0" />
    <path
       transform="matrix(0.5293596,-0.17261129,0.17844674,0.49345339,116.00072,190.63457)"
       sodipodi:open="true"
       sodipodi:end="6.2752089"
       sodipodi:start="0"
       d="m 366.78572,281.29074 a 63.92857,17.5 0 1 1 -0.002,-0.13958"
       sodipodi:ry="17.5"
       sodipodi:rx="63.92857"
       sodipodi:cy="281.29074"
       sodipodi:cx="302.85715"
       id="path4139"
       style="fill:#000000;fill-opacity:1;fill-rule:nonzero;stroke:none"
       sodipodi:type="arc" />
    <path
       style="fill:#2a2aff;fill-opacity:1;fill-rule:nonzero;stroke:#00002b;stroke-width:1.18040943"
       d="m 413.01309,332.28838 -0.54337,11.96549 14.49244,1.58914 1.62434,2.60548 -12.41139,5.71806 4.79858,6.07363 20.85444,-11.22706 c 1.63077,0.6492 3.52723,0.79846 5.40713,0.26343 1.91844,-0.546 3.46373,-1.71017 4.50824,-3.16205 l 21.12762,5.49117 3.79201,-6.75457 -2.50689,-7.18602 -3.92612,-1.52856 3.35823,-3.56336 -1.2181,-8.85659 -21.49466,13.01987 c -1.937,-1.755 -4.82124,-2.46258 -7.68125,-1.64863 -2.20101,0.62642 -3.96414,2.0327 -4.98016,3.79487 l -25.20109,-6.5943 z"
       id="path4141"
       inkscape:connector-curvature="0" />
    <path
       style="fill:none;fill-opacity:1;fill-rule:nonzero;stroke:#000000;stroke-width:2;stroke-linecap:butt;stroke-linejoin:miter;stroke-miterlimit:4;stroke-opacity:1;stroke-dasharray:none;stroke-dashoffset:0"
       d="m 325,321.6479 -116.42857,0.71428 z"
       id="path4168"
       inkscape:connector-curvature="0" />
    <path
       inkscape:connector-curvature="0"
       id="path4170"
       d="m 312.14286,333.07647 -116.42857,0.71428 z"
       style="fill:none;fill-opacity:1;fill-rule:nonzero;stroke:#000000;stroke-width:2;stroke-linecap:butt;stroke-linejoin:miter;stroke-miterlimit:4;stroke-opacity:1;stroke-dasharray:none;stroke-dashoffset:0" />
    <path
       style="fill:none;fill-opacity:1;fill-rule:nonzero;stroke:#000000;stroke-width:2;stroke-linecap:butt;stroke-linejoin:miter;stroke-miterlimit:4;stroke-opacity:1;stroke-dasharray:none;stroke-dashoffset:0"
       d="m 278.66306,351.55627 -73.75469,0.45248 z"
       id="path4172"
       inkscape:connector-curvature="0" />
    <path
       inkscape:connector-curvature="0"
       id="path4174"
       d="m 278.66306,437.27056 -73.75469,0.45248 z"
       style="fill:none;fill-opacity:1;fill-rule:nonzero;stroke:#000000;stroke-width:2;stroke-linecap:butt;stroke-linejoin:miter;stroke-miterlimit:4;stroke-opacity:1;stroke-dasharray:none;stroke-dashoffset:0" />
    <path
       style="fill:none;fill-opacity:1;fill-rule:nonzero;stroke:#000000;stroke-width:2;stroke-linecap:butt;stroke-linejoin:miter;stroke-miterlimit:4;stroke-opacity:1;stroke-dasharray:none;stroke-dashoffset:0"
       d="m 320,422.98485 -73.75469,0.45248 z"
       id="path4176"
       inkscape:connector-curvature="0" />
    <path
       inkscape:connector-curvature="0"
       id="path4178"
       d="m 280,448.69914 -73.75469,0.45248 z"
       style="fill:none;fill-opacity:1;fill-rule:nonzero;stroke:#000000;stroke-width:2;stroke-linecap:butt;stroke-linejoin:miter;stroke-miterlimit:4;stroke-opacity:1;stroke-dasharray:none;stroke-dashoffset:0" />
  </g>
</svg>
