<?xml version="1.0" encoding="UTF-8" standalone="no"?>
<!-- Created with Inkscape (http://www.inkscape.org/) -->

<svg
   xmlns:dc="http://purl.org/dc/elements/1.1/"
   xmlns:cc="http://creativecommons.org/ns#"
   xmlns:rdf="http://www.w3.org/1999/02/22-rdf-syntax-ns#"
   xmlns:svg="http://www.w3.org/2000/svg"
   xmlns="http://www.w3.org/2000/svg"
   xmlns:xlink="http://www.w3.org/1999/xlink"
   xmlns:sodipodi="http://sodipodi.sourceforge.net/DTD/sodipodi-0.dtd"
   xmlns:inkscape="http://www.inkscape.org/namespaces/inkscape"
   width="744.09448819"
   height="1052.3622047"
   id="svg3330"
   version="1.1"
   inkscape:version="0.48.2 r9819"
   sodipodi:docname="ermin.svg"
   inkscape:export-filename="/Users/gtorok/ermin/data/ermin.png"
   inkscape:export-xdpi="90"
   inkscape:export-ydpi="90">
  <defs
     id="defs3332">
    <linearGradient
       id="linearGradient3887">
      <stop
         style="stop-color:#e71a02;stop-opacity:1;"
         offset="0"
         id="stop3889" />
      <stop
         id="stop3901"
         offset="0.28125"
         style="stop-color:#30d60b;stop-opacity:1;" />
      <stop
         id="stop3895"
         offset="0.5"
         style="stop-color:#ffff14;stop-opacity:1;" />
      <stop
         style="stop-color:#ff00d3;stop-opacity:1;"
         offset="0.8125"
         id="stop3897" />
      <stop
         style="stop-color:#5318ff;stop-opacity:1;"
         offset="1"
         id="stop3891" />
    </linearGradient>
    <linearGradient
       inkscape:collect="always"
       xlink:href="#linearGradient3887"
       id="linearGradient3893"
       x1="1.3424253"
       y1="-298.89752"
       x2="753.59564"
       y2="-298.89752"
       gradientUnits="userSpaceOnUse" />
    <linearGradient
       inkscape:collect="always"
       xlink:href="#linearGradient3887"
       id="linearGradient3985"
       gradientUnits="userSpaceOnUse"
       x1="1.3424253"
       y1="-298.89752"
       x2="753.59564"
       y2="-298.89752" />
    <linearGradient
       inkscape:collect="always"
       xlink:href="#linearGradient3887"
       id="linearGradient4003"
       gradientUnits="userSpaceOnUse"
       x1="1.3424253"
       y1="-298.89752"
       x2="753.59564"
       y2="-298.89752" />
    <linearGradient
       inkscape:collect="always"
       xlink:href="#linearGradient3887"
       id="linearGradient4016"
       gradientUnits="userSpaceOnUse"
       x1="1.3424253"
       y1="-298.89752"
       x2="753.59564"
       y2="-298.89752" />
    <linearGradient
       inkscape:collect="always"
       xlink:href="#linearGradient3887"
       id="linearGradient4018"
       gradientUnits="userSpaceOnUse"
       x1="1.3424253"
       y1="-298.89752"
       x2="753.59564"
       y2="-298.89752" />
  </defs>
  <sodipodi:namedview
     id="base"
     pagecolor="#ffffff"
     bordercolor="#666666"
     borderopacity="1.0"
     inkscape:pageopacity="0.0"
     inkscape:pageshadow="2"
     inkscape:zoom="0.98994949"
     inkscape:cx="255.08694"
     inkscape:cy="586.72406"
     inkscape:document-units="px"
     inkscape:current-layer="layer1"
     showgrid="true"
     objecttolerance="1"
     gridtolerance="1"
     guidetolerance="1"
     inkscape:window-width="1645"
     inkscape:window-height="1028"
     inkscape:window-x="32"
     inkscape:window-y="25"
     inkscape:window-maximized="0">
    <inkscape:grid
       type="xygrid"
       id="grid3338"
       empspacing="4"
       visible="true"
       enabled="true"
       snapvisiblegridlinesonly="false"
       spacingx="64px"
       spacingy="64px" />
  </sodipodi:namedview>
  <metadata
     id="metadata3335">
    <rdf:RDF>
      <cc:Work
         rdf:about="">
        <dc:format>image/svg+xml</dc:format>
        <dc:type
           rdf:resource="http://purl.org/dc/dcmitype/StillImage" />
        <dc:title />
      </cc:Work>
    </rdf:RDF>
  </metadata>
  <g
     inkscape:label="Layer 1"
     inkscape:groupmode="layer"
     id="layer1">
    <g
       id="g4012"
       transform="matrix(0.75922849,0,0,0.75922849,97.225164,762.1552)">
      <path
         style="fill:url(#linearGradient4016);fill-opacity:1;fill-rule:nonzero;stroke:#000000;stroke-width:50;stroke-linejoin:round;stroke-miterlimit:4;stroke-dasharray:none"
         d="m 613.30789,-544.91719 c -1.60533,0.0949 -3.31197,0.91327 -4.65625,3.34375 -3.58475,6.48128 66.875,186.625 66.875,186.625 l -184.875,-113.40625 c 0,0 -16.36486,-2.71575 -19.4375,19.96875 l 89.15625,202.5 c 0,0 9.71875,3.24015 9.71875,-3.78125 0,-7.02138 -61.5,-180.34375 -61.5,-180.34375 l 211,144.21875 c 0,0 12.29336,7.02508 11.78125,-5.9375 -0.5121,-12.96258 -112.96875,-251.46875 -112.96875,-251.46875 0,0 -2.4182,-1.87698 -5.09375,-1.71875 z m -202.47112,63.3953 c -0.24034,0.002 -0.482,0.008 -0.71875,0.0312 -15.15229,1.51523 -4.53125,49.5 -4.53125,49.5 l 42.4375,-7.0625 c 0,0 -22.04619,-42.58345 -37.1875,-42.46875 z m 46.71875,56.625 -46.96875,9.09375 c 0,0 86.88895,135.34771 98.71875,150.5 11.8298,15.15229 12.90625,-3.53125 12.90625,-3.53125 z m -82.61802,12.49064 c -5.53321,0.20712 -10.20931,3.31366 -11.59375,12.3125 L 356.25,-354.125 c 0,0 -24.52815,-36.09938 -40.40625,-40.40625 C 286.64441,-402.45146 282.53125,-391 282.53125,-391 L 307.625,-277.96875 C 269.54549,-297.39896 230.25,-317.25 230.25,-317.25 c 0,0 40.90228,-11.60596 25.75,-38.375 -12.31124,-21.74985 -54.3129,-23.82933 -69.625,-23.84375 -3.46007,-0.003 -5.47759,0.0899 -5.5625,0.0937 l 0.0625,-0.0312 c 0,0 -9.89593,-0.3869 -20.25,3.90625 -10.15992,4.21265 -11.51562,8.04468 -11.5625,8.1875 l -0.15625,0.0625 47.34375,118.40625 c -47.73896,14.53838 -122.5,38 -122.5,38 l -18.1875,-59.59375 94.65625,-37.375 c 0,0 6.57028,-6.05235 -3.53125,-7.0625 -10.10152,-1.01015 -96.15625,19.6875 -96.15625,19.6875 L 32.84375,-338.125 128,-382.5625 c 0,0 9.59058,-7.5625 -2.53125,-7.5625 l -110.8125,26.75 c 0,0 -15.145305,15.17464 -13.125,25.78125 2.020305,10.6066 39.40625,157.0625 39.40625,157.0625 0,0 6.562173,15.14451 25.25,10.09375 12.891814,-3.48427 89.28083,-40.75215 135.90625,-63.75 l 72.59375,181.59375 c 0,0 7.57265,5.07107 6.5625,-2 -0.73778,-5.164477 -36.2032,-125.99039 -55.4375,-191.3125 4.66439,-2.31937 12.8125,-6.34375 12.8125,-6.34375 0,0 11.60502,-11.60311 -5.0625,-7.5625 -1.97794,0.4795 -5.84802,1.54297 -10.9375,3.03125 -4.91487,-16.67912 -9.0625,-30.65625 -9.0625,-30.65625 L 312.625,-255.34375 337.5625,-143 c 0,0 8.08867,7.07615 8.59375,-0.5 0.50507,-7.57614 0.5,-8.09375 0.5,-8.09375 L 331.4375,-249.25 l 44.25,14.34375 c 0,0 7.58709,-2.52189 2.03125,-6.5625 -2.08272,-1.5147 -23.31509,-12.55354 -49.0625,-25.75 l -12.28125,-78.8125 66.65625,66.65625 c 0,0 8.5836,5.04997 9.59375,-3.03125 1.01016,-8.08122 0.5,-77.28125 0.5,-77.28125 l 147,217.6875 c 0,0 9.07773,5.06013 7.5625,-4.03125 -1.51523,-9.09137 -148.5,-256.59375 -148.5,-256.59375 0,0 -13.6866,-10.17665 -24.25,-9.78125 z m -181.6875,51.25 c 0.81403,-0.008 1.66476,-0.0134 2.53125,0 12.13096,0.18731 28.87287,1.96663 36.46875,9.5625 12.62691,12.62691 -35.34375,29.8125 -35.34375,29.8125 L 181.75,-360.6875 c 0,0 3.68438,-0.3481 9.15625,-0.4375 0.75238,-0.0123 1.52972,-0.0232 2.34375,-0.0312 z"
         id="path4008"
         inkscape:connector-curvature="0"
         sodipodi:nodetypes="ssccccsccscsscccsccsccsccscccscccsccccccscccccscsccsccsccccscccscccsccscsscscccs" />
      <path
         sodipodi:nodetypes="ssccccsccscsscccsccsccsccscccscccsccccccscccccscsccsccsccccscccscccsccscsscscccs"
         inkscape:connector-curvature="0"
         id="path3861"
         d="m 613.30789,-544.91719 c -1.60533,0.0949 -3.31197,0.91327 -4.65625,3.34375 -3.58475,6.48128 66.875,186.625 66.875,186.625 l -184.875,-113.40625 c 0,0 -16.36486,-2.71575 -19.4375,19.96875 l 89.15625,202.5 c 0,0 9.71875,3.24015 9.71875,-3.78125 0,-7.02138 -61.5,-180.34375 -61.5,-180.34375 l 211,144.21875 c 0,0 12.29336,7.02508 11.78125,-5.9375 -0.5121,-12.96258 -112.96875,-251.46875 -112.96875,-251.46875 0,0 -2.4182,-1.87698 -5.09375,-1.71875 z m -202.47112,63.3953 c -0.24034,0.002 -0.482,0.008 -0.71875,0.0312 -15.15229,1.51523 -4.53125,49.5 -4.53125,49.5 l 42.4375,-7.0625 c 0,0 -22.04619,-42.58345 -37.1875,-42.46875 z m 46.71875,56.625 -46.96875,9.09375 c 0,0 86.88895,135.34771 98.71875,150.5 11.8298,15.15229 12.90625,-3.53125 12.90625,-3.53125 z m -82.61802,12.49064 c -5.53321,0.20712 -10.20931,3.31366 -11.59375,12.3125 L 356.25,-354.125 c 0,0 -24.52815,-36.09938 -40.40625,-40.40625 C 286.64441,-402.45146 282.53125,-391 282.53125,-391 L 307.625,-277.96875 C 269.54549,-297.39896 230.25,-317.25 230.25,-317.25 c 0,0 40.90228,-11.60596 25.75,-38.375 -12.31124,-21.74985 -54.3129,-23.82933 -69.625,-23.84375 -3.46007,-0.003 -5.47759,0.0899 -5.5625,0.0937 l 0.0625,-0.0312 c 0,0 -9.89593,-0.3869 -20.25,3.90625 -10.15992,4.21265 -11.51562,8.04468 -11.5625,8.1875 l -0.15625,0.0625 47.34375,118.40625 c -47.73896,14.53838 -122.5,38 -122.5,38 l -18.1875,-59.59375 94.65625,-37.375 c 0,0 6.57028,-6.05235 -3.53125,-7.0625 -10.10152,-1.01015 -96.15625,19.6875 -96.15625,19.6875 L 32.84375,-338.125 128,-382.5625 c 0,0 9.59058,-7.5625 -2.53125,-7.5625 l -110.8125,26.75 c 0,0 -15.145305,15.17464 -13.125,25.78125 2.020305,10.6066 39.40625,157.0625 39.40625,157.0625 0,0 6.562173,15.14451 25.25,10.09375 12.891814,-3.48427 89.28083,-40.75215 135.90625,-63.75 l 72.59375,181.59375 c 0,0 7.57265,5.07107 6.5625,-2 -0.73778,-5.164477 -36.2032,-125.99039 -55.4375,-191.3125 4.66439,-2.31937 12.8125,-6.34375 12.8125,-6.34375 0,0 11.60502,-11.60311 -5.0625,-7.5625 -1.97794,0.4795 -5.84802,1.54297 -10.9375,3.03125 -4.91487,-16.67912 -9.0625,-30.65625 -9.0625,-30.65625 L 312.625,-255.34375 337.5625,-143 c 0,0 8.08867,7.07615 8.59375,-0.5 0.50507,-7.57614 0.5,-8.09375 0.5,-8.09375 L 331.4375,-249.25 l 44.25,14.34375 c 0,0 7.58709,-2.52189 2.03125,-6.5625 -2.08272,-1.5147 -23.31509,-12.55354 -49.0625,-25.75 l -12.28125,-78.8125 66.65625,66.65625 c 0,0 8.5836,5.04997 9.59375,-3.03125 1.01016,-8.08122 0.5,-77.28125 0.5,-77.28125 l 147,217.6875 c 0,0 9.07773,5.06013 7.5625,-4.03125 -1.51523,-9.09137 -148.5,-256.59375 -148.5,-256.59375 0,0 -13.6866,-10.17665 -24.25,-9.78125 z m -181.6875,51.25 c 0.81403,-0.008 1.66476,-0.0134 2.53125,0 12.13096,0.18731 28.87287,1.96663 36.46875,9.5625 12.62691,12.62691 -35.34375,29.8125 -35.34375,29.8125 L 181.75,-360.6875 c 0,0 3.68438,-0.3481 9.15625,-0.4375 0.75238,-0.0123 1.52972,-0.0232 2.34375,-0.0312 z"
         style="fill:url(#linearGradient4018);fill-opacity:1;fill-rule:nonzero;stroke:none" />
    </g>
  </g>
</svg>
