<?xml version="1.0" encoding="UTF-8" standalone="no"?>
<!-- Created with Inkscape (http://www.inkscape.org/) -->

<svg
   xmlns:dc="http://purl.org/dc/elements/1.1/"
   xmlns:cc="http://creativecommons.org/ns#"
   xmlns:rdf="http://www.w3.org/1999/02/22-rdf-syntax-ns#"
   xmlns:svg="http://www.w3.org/2000/svg"
   xmlns="http://www.w3.org/2000/svg"
   xmlns:sodipodi="http://sodipodi.sourceforge.net/DTD/sodipodi-0.dtd"
   xmlns:inkscape="http://www.inkscape.org/namespaces/inkscape"
   width="744.09448819"
   height="1052.3622047"
   id="svg2"
   version="1.1"
   inkscape:version="0.48.2 r9819"
   sodipodi:docname="heads.svg"
   inkscape:export-filename="/Users/gtorok/ermin/data/heads.png"
   inkscape:export-xdpi="90"
   inkscape:export-ydpi="90">
  <defs
     id="defs4" />
  <sodipodi:namedview
     id="base"
     pagecolor="#ffffff"
     bordercolor="#666666"
     borderopacity="1.0"
     inkscape:pageopacity="0.0"
     inkscape:pageshadow="2"
     inkscape:zoom="1.4142136"
     inkscape:cx="369.64325"
     inkscape:cy="529.34039"
     inkscape:document-units="px"
     inkscape:current-layer="layer1"
     showgrid="false"
     showguides="true"
     inkscape:guide-bbox="true"
     inkscape:window-width="1916"
     inkscape:window-height="1156"
     inkscape:window-x="4"
     inkscape:window-y="0"
     inkscape:window-maximized="1"
     objecttolerance="1"
     gridtolerance="1"
     guidetolerance="1" />
  <metadata
     id="metadata7">
    <rdf:RDF>
      <cc:Work
         rdf:about="">
        <dc:format>image/svg+xml</dc:format>
        <dc:type
           rdf:resource="http://purl.org/dc/dcmitype/StillImage" />
        <dc:title />
      </cc:Work>
    </rdf:RDF>
  </metadata>
  <g
     inkscape:label="Layer 1"
     inkscape:groupmode="layer"
     id="layer1">
    <g
       id="g3332"
       transform="matrix(1,0,0,0.86662878,-267.99346,40.225114)">
      <path
         style="fill:#000000;fill-opacity:1;fill-rule:nonzero;stroke:#000000;stroke-width:25;stroke-miterlimit:4;stroke-opacity:1;stroke-dasharray:none"
         d="m 636.97046,296.30086 c -1.70529,4e-5 -3.16994,0.37514 -4.375,1.09375 -1.20507,0.70401 -2.07931,1.67624 -2.625,2.9375 -0.13011,0.30713 -0.24532,0.66841 -0.34375,1.0625 l -3.125,0 c -0.20746,-0.6028 -0.48285,-1.15538 -0.84375,-1.6875 -0.63665,-0.9386 -1.55346,-1.62056 -2.78125,-2.03125 -1.21645,-0.41062 -3.56386,-0.62496 -7.03125,-0.625 l -5.375,0 0,4.34375 -4.84375,0 -0.5,-4.34375 -10.375,0 -0.4375,4.34375 -4.15625,0 0,-4.34375 -11.96875,0 0,35.625 5.375,0 0,4.9375 -7.875,0 0,7.125 4.25,0 0,28.5 3.625,0 0,352.03125 85.53125,0 0,-352.03125 0.84375,0 0,-16.21875 3.75,16.21875 6.28125,0 0,-35.625 -6,0 0,16.03125 -4.03125,-16.03125 -0.84375,0 0,-8.3125 c 0.60277,-1.15751 0.97798,-2.41011 1.09375,-3.78125 0.1364,-1.49595 0.18748,-4.01518 0.1875,-7.59375 l 0,-6.09375 c -2e-5,-3.66653 -0.0511,-6.2521 -0.1875,-7.71875 -0.13644,-1.46659 -0.56505,-2.81584 -1.28125,-4.0625 -0.71623,-1.24659 -1.66144,-2.16523 -2.84375,-2.78125 -1.17097,-0.63061 -2.49085,-0.96871 -3.96875,-0.96875 -1.5575,4e-5 -2.9228,0.34006 -4.09375,1 -1.17096,0.66001 -2.11902,1.61182 -2.8125,2.84375 -0.2231,0.40295 -0.39777,0.81881 -0.5625,1.25 l -10.03125,0 c -0.0774,-0.36525 -0.14893,-0.69422 -0.25,-0.96875 -0.42065,-1.18793 -1.30626,-2.16016 -2.625,-2.9375 -1.30739,-0.77727 -2.88557,-1.18746 -4.75,-1.1875 z m -78.15625,0.75 0,35.625 7.1875,0 0,-14.96875 2.15625,0 0,14.96875 7.1875,0 0,-35.625 -7.1875,0 0,12.75 -2.15625,0 0,-12.75 z m 114.28125,0 0,35.625 6,0 0,-16.1875 3.71875,16.1875 6.3125,0 0,-35.625 -6.03125,0 0,16.03125 -4,-16.03125 z m -107.0625,39.8125 c -1.70529,4e-5 -3.16994,0.34389 -4.375,1.0625 -1.20507,0.70401 -2.07931,1.70749 -2.625,2.96875 -0.53433,1.26133 -0.8125,3.24086 -0.8125,5.96875 0,1.89197 0.18733,3.43898 0.5625,4.65625 0.38653,1.21732 0.88895,2.18571 1.46875,2.875 0.57979,0.68933 1.74638,1.78723 3.53125,3.3125 1.78485,1.51063 2.92025,2.6047 3.375,3.25 0.44336,0.64533 0.65624,1.99649 0.65625,4.09375 -10e-6,0.95331 -0.10502,1.67227 -0.34375,2.15625 -0.22738,0.48399 -0.58503,0.75001 -1.0625,0.75 -0.47749,10e-6 -0.80675,-0.21242 -1,-0.59375 -0.18191,-0.38132 -0.28126,-1.22787 -0.28125,-2.5625 l 0,-4.34375 -6.6875,0 0,2.34375 c 0,2.66926 0.23561,4.73555 0.65625,6.1875 0.42063,1.45196 1.30339,2.62386 2.65625,3.5625 1.36422,0.93864 3.01621,1.4375 4.9375,1.4375 1.75074,0 3.27498,-0.41211 4.59375,-1.21875 1.31873,-0.82131 2.20149,-1.82862 2.65625,-3.03125 0.46609,-1.20263 0.68748,-3.08774 0.6875,-5.625 -2e-5,-3.49055 -0.38887,-6.02445 -1.21875,-7.59375 -0.82992,-1.56927 -2.86796,-3.58197 -6.0625,-6.03125 -1.11413,-0.85062 -1.79252,-1.55491 -2.03125,-2.15625 -0.25012,-0.60129 -0.37501,-1.49951 -0.375,-2.6875 -10e-6,-0.92394 0.12774,-1.60782 0.34375,-2.0625 0.22736,-0.45462 0.53673,-0.68747 0.96875,-0.6875 0.39789,3e-5 0.70446,0.16271 0.875,0.5 0.17052,0.33735 0.24999,1.11182 0.25,2.34375 l 0,2.65625 6.65625,0 0,-1.40625 c -2e-5,-2.83055 -0.19301,-4.82667 -0.625,-6 -0.42065,-1.18793 -1.30627,-2.19141 -2.625,-2.96875 -1.3074,-0.77727 -2.88557,-1.15621 -4.75,-1.15625 z m 124.96875,0 c -1.5575,4e-5 -2.91994,0.34197 -4.125,1.03125 -1.1937,0.67468 -2.16164,1.59332 -2.84375,2.78125 -0.67075,1.188 -1.05108,2.42815 -1.1875,3.71875 -0.13642,1.27599 -0.21875,3.21469 -0.21875,5.78125 l 0,10.40625 c 0,3.49057 0.21288,6.09848 0.65625,7.84375 0.44337,1.73062 1.35452,3.07987 2.71875,4.0625 1.36422,0.98264 3.11556,1.5 5.21875,1.5 2.02359,0 3.71814,-0.59137 5.09375,-1.75 1.38695,-1.15863 2.28958,-2.52254 2.6875,-4.0625 0.40925,-1.53995 0.59373,-4.13127 0.59375,-7.8125 l 0,-1.40625 -7.1875,0 0,4.46875 c -10e-6,1.95061 -0.0795,3.19077 -0.25,3.71875 -0.15917,0.52799 -0.49694,0.81251 -1.03125,0.8125 -0.55707,10e-6 -0.90335,-0.28451 -1.0625,-0.8125 -0.15917,-0.52798 -0.25001,-1.64438 -0.25,-3.375 l 0,-16.5625 c -10e-6,-1.80392 0.0908,-2.95732 0.25,-3.5 0.15915,-0.54262 0.53383,-0.81247 1.125,-0.8125 0.52294,3e-5 0.8522,0.23288 1,0.6875 0.15915,0.44002 0.21874,1.53983 0.21875,3.34375 l 0,6.21875 7.1875,0 0,-3.40625 c -2e-5,-3.3292 -0.22426,-5.77444 -0.65625,-7.34375 -0.43202,-1.58392 -1.31192,-2.8815 -2.6875,-3.9375 -1.37561,-1.05593 -3.13546,-1.59371 -5.25,-1.59375 z"
         id="path3104"
         inkscape:connector-curvature="0"
         sodipodi:nodetypes="cccccccccccccccccccccccccccccccccccccccssccccccccccccccccccccccccccccccccccccccsccccccccsccsscsccccccccccsccscccccccsscssccsccscccsscccsccsccc" />
      <rect
         style="fill:#000000;fill-opacity:1;fill-rule:nonzero;stroke:#ffffff;stroke-width:5;stroke-miterlimit:4;stroke-opacity:1;stroke-dasharray:none"
         id="rect3106"
         width="85.525139"
         height="425.87863"
         x="584.28003"
         y="300.6907" />
      <g
         id="g3108"
         style="fill:#000000;fill-opacity:1;stroke:#000000;stroke-width:8;stroke-linejoin:bevel;stroke-miterlimit:4;stroke-opacity:1;stroke-dasharray:none"
         transform="matrix(2.6085438,0,0,2.6085438,-428.13365,-796.8577)">
        <path
           style="fill:#000000;fill-opacity:1;fill-rule:nonzero;stroke:#000000;stroke-width:8;stroke-linecap:butt;stroke-linejoin:bevel;stroke-miterlimit:4;stroke-opacity:1;stroke-dasharray:none;stroke-dashoffset:0"
           d="m 393.85847,588.14658 5.65686,-53.03301 9.19239,2.12132 -4.5962,53.03301 c 0,0 -7.07107,5.3033 -10.25305,-2.12132 z"
           id="path3110"
           inkscape:connector-curvature="0"
           sodipodi:nodetypes="ccccc" />
        <g
           id="g3112"
           transform="matrix(0.37913042,0,0,0.37913042,258.97193,361.97774)"
           style="fill:#000000;fill-opacity:1;stroke:#000000;stroke-width:21.10091782;stroke-linejoin:bevel;stroke-miterlimit:4;stroke-opacity:1;stroke-dasharray:none">
          <path
             inkscape:connector-curvature="0"
             id="path3114"
             d="m 323.75389,535.66916 -4.04061,13.63705 -4.54569,7.57615 0.50508,8.5863 16.16244,10.10152 31.31473,-13.13198 c 0,0 7.07107,-9.09138 7.07107,-11.61676 0,-2.52538 -3.03046,-24.24366 -3.03046,-24.24366 z"
             style="fill:#000000;fill-opacity:1;fill-rule:nonzero;stroke:#000000;stroke-width:21.10091782;stroke-linejoin:bevel;stroke-miterlimit:4;stroke-opacity:1;stroke-dasharray:none" />
          <path
             sodipodi:nodetypes="cccccccsccccccccccccccccccccccccccccccccccccccc"
             inkscape:connector-curvature="0"
             id="path3116"
             d="m 352.55584,441.72462 -21.21209,7.05663 -6.0625,7.09375 -4.0625,18.6875 0,11.59375 -6.5625,2.03125 -8.0625,4.03125 c 0,0 -2.53125,11.13594 -2.53125,13.15625 0,2.0203 5.03125,8.0625 5.03125,8.0625 l 3.5625,10.625 1,17.65625 6.46875,5.625 -0.40625,-0.0625 -5.5625,8.59375 0,12.625 1,6.5625 4.0625,5.0625 8.0625,3.53125 10.125,0 24.21875,-10.09375 11.625,-11.625 0,-12.125 -0.50666,-10.10469 0.3125,-3.98906 -0.31758,-0.0625 4.05473,0.005 15.64023,1.53553 14.66053,-4.56329 9.08281,-11.12072 5.04568,-15.12849 0.51444,-20.21796 -5.04219,-17.16053 -14.64769,-17.18751 -30.31599,-9.58867 z m 9.31916,96.08788 2.78125,14.03125 -10.09375,7.0625 L 336.375,568 l -9.09375,-2.03125 -9.09375,-5.5625 -1.5,-3.53125 6.0625,-8.40625 19.6875,2.34375 13.65625,-1.5 2,-10.09375 z"
             style="fill:#000000;fill-opacity:1;stroke:#000000;stroke-width:21.10091782;stroke-linecap:butt;stroke-linejoin:bevel;stroke-miterlimit:4;stroke-opacity:1;stroke-dasharray:none;stroke-dashoffset:0" />
          <path
             sodipodi:nodetypes="cccccccc"
             inkscape:connector-curvature="0"
             id="path3118"
             d="m 336.88588,501.82905 14.14213,10.10152 14.64721,-4.04061 2.52538,-11.61675 -3.03045,-8.5863 -21.21321,-0.50508 -7.57614,3.53554 z"
             style="fill:#000000;fill-opacity:1;stroke:#000000;stroke-width:21.10091782;stroke-linejoin:bevel;stroke-miterlimit:4;stroke-opacity:1;stroke-dasharray:none" />
          <path
             sodipodi:nodetypes="ccccccc"
             inkscape:connector-curvature="0"
             id="path3120"
             d="m 313.14729,489.20214 13.63706,2.02031 2.52538,-7.57615 -6.06092,-9.59645 -1.51522,-1.01015 -0.50508,12.12183 z"
             style="fill:#000000;fill-opacity:1;fill-rule:nonzero;stroke:#000000;stroke-width:21.10091782;stroke-linejoin:bevel;stroke-miterlimit:4;stroke-opacity:1;stroke-dasharray:none" />
          <path
             inkscape:connector-curvature="0"
             id="path3122"
             d="m 326.27927,500.81889 0,12.12183 -5.05076,4.04061 -1.01015,-1.01015 z"
             style="fill:#000000;fill-opacity:1;fill-rule:nonzero;stroke:#000000;stroke-width:21.10091782;stroke-linejoin:bevel;stroke-miterlimit:4;stroke-opacity:1;stroke-dasharray:none" />
          <path
             inkscape:connector-curvature="0"
             id="path3124"
             d="m 320.21836,499.80874 -3.53554,14.14214 -3.03045,-3.03046 2.0203,-6.56599 z"
             style="fill:#000000;fill-opacity:1;fill-rule:nonzero;stroke:#000000;stroke-width:21.10091782;stroke-linejoin:bevel;stroke-miterlimit:4;stroke-opacity:1;stroke-dasharray:none" />
          <path
             inkscape:connector-curvature="0"
             id="path3126"
             d="m 316.68282,542.74022 0.50508,-11.11167 2.0203,2.0203 -0.50507,12.12183 z"
             style="fill:#000000;fill-opacity:1;fill-rule:nonzero;stroke:#000000;stroke-width:21.10091782;stroke-linejoin:bevel;stroke-miterlimit:4;stroke-opacity:1;stroke-dasharray:none" />
          <path
             inkscape:connector-curvature="0"
             id="path3128"
             d="m 322.23866,547.28591 1.51523,-10.10153 2.52538,11.11168 z"
             style="fill:#000000;fill-opacity:1;fill-rule:nonzero;stroke:#000000;stroke-width:21.10091782;stroke-linejoin:bevel;stroke-miterlimit:4;stroke-opacity:1;stroke-dasharray:none" />
          <path
             inkscape:connector-curvature="0"
             id="path3130"
             d="m 330.82496,548.29606 4.54569,-9.09137 0,9.59645 z"
             style="fill:#000000;fill-opacity:1;fill-rule:nonzero;stroke:#000000;stroke-width:21.10091782;stroke-linejoin:bevel;stroke-miterlimit:4;stroke-opacity:1;stroke-dasharray:none" />
          <path
             inkscape:connector-curvature="0"
             id="path3132"
             d="m 342.94679,550.31637 1.51523,-11.11168 2.0203,10.6066 z"
             style="fill:#000000;fill-opacity:1;fill-rule:nonzero;stroke:#000000;stroke-width:21.10091782;stroke-linejoin:bevel;stroke-miterlimit:4;stroke-opacity:1;stroke-dasharray:none" />
          <path
             inkscape:connector-curvature="0"
             id="path3134"
             d="m 319.2082,560.92297 0.50508,10.10152 3.53553,-7.57614 z"
             style="fill:#000000;fill-opacity:1;stroke:#000000;stroke-width:21.10091782;stroke-linejoin:bevel;stroke-miterlimit:4;stroke-opacity:1;stroke-dasharray:none" />
          <path
             inkscape:connector-curvature="0"
             id="path3136"
             d="m 327.28942,565.97373 0,11.11168 4.04062,-9.59645 z"
             style="fill:#000000;fill-opacity:1;fill-rule:nonzero;stroke:#000000;stroke-width:21.10091782;stroke-linejoin:bevel;stroke-miterlimit:4;stroke-opacity:1;stroke-dasharray:none" />
          <path
             inkscape:connector-curvature="0"
             id="path3138"
             d="m 337.89603,566.47881 0,10.6066 6.06091,-12.62691 z"
             style="fill:#000000;fill-opacity:1;fill-rule:nonzero;stroke:#000000;stroke-width:21.10091782;stroke-linejoin:bevel;stroke-miterlimit:4;stroke-opacity:1;stroke-dasharray:none" />
          <path
             inkscape:connector-curvature="0"
             id="path3140"
             d="m 348.50263,561.93312 2.52538,7.07107 5.05076,-4.54569 -2.0203,-4.54568 z"
             style="fill:#000000;fill-opacity:1;fill-rule:nonzero;stroke:#000000;stroke-width:21.10091782;stroke-linejoin:bevel;stroke-miterlimit:4;stroke-opacity:1;stroke-dasharray:none" />
        </g>
        <path
           style="fill:#000000;fill-opacity:1;fill-rule:nonzero;stroke:#000000;stroke-width:8;stroke-linejoin:bevel;stroke-miterlimit:4;stroke-opacity:1;stroke-dasharray:none"
           d="m 399.86889,537.942 5.3033,-33.58757 6.71751,0.7071 -3.18198,35.7089 c 0,0 -6.01041,3.88908 -8.83883,-2.82843 z"
           id="path3142"
           inkscape:connector-curvature="0"
           sodipodi:nodetypes="ccccc" />
        <g
           transform="matrix(-0.3781565,0.02715759,0.02715759,0.3781565,536.3232,317.86972)"
           id="g3144"
           style="fill:#000000;fill-opacity:1;stroke:#000000;stroke-width:21.10091782;stroke-linejoin:bevel;stroke-miterlimit:4;stroke-opacity:1;stroke-dasharray:none">
          <path
             style="fill:#000000;fill-opacity:1;fill-rule:nonzero;stroke:#000000;stroke-width:21.10091782;stroke-linejoin:bevel;stroke-miterlimit:4;stroke-opacity:1;stroke-dasharray:none"
             d="m 323.75389,535.66916 -4.04061,13.63705 -4.54569,7.57615 0.50508,8.5863 16.16244,10.10152 31.31473,-13.13198 c 0,0 7.07107,-9.09138 7.07107,-11.61676 0,-2.52538 -3.03046,-24.24366 -3.03046,-24.24366 z"
             id="path3146"
             inkscape:connector-curvature="0" />
          <path
             style="fill:#000000;fill-opacity:1;stroke:#000000;stroke-width:21.10091782;stroke-linecap:butt;stroke-linejoin:bevel;stroke-miterlimit:4;stroke-opacity:1;stroke-dasharray:none;stroke-dashoffset:0"
             d="m 352.55584,441.72462 -21.21209,7.05663 -6.0625,7.09375 -4.0625,18.6875 0,11.59375 -6.5625,2.03125 -8.0625,4.03125 c 0,0 -2.53125,11.13594 -2.53125,13.15625 0,2.0203 5.03125,8.0625 5.03125,8.0625 l 3.5625,10.625 1,17.65625 6.46875,5.625 -0.40625,-0.0625 -5.5625,8.59375 0,12.625 1,6.5625 4.0625,5.0625 8.0625,3.53125 10.125,0 24.21875,-10.09375 11.625,-11.625 0,-12.125 -0.50666,-10.10469 0.3125,-3.98906 -0.31758,-0.0625 4.05473,0.005 15.64023,1.53553 14.66053,-4.56329 9.08281,-11.12072 5.04568,-15.12849 0.51444,-20.21796 -5.04219,-17.16053 -14.64769,-17.18751 -30.31599,-9.58867 z m 9.31916,96.08788 2.78125,14.03125 -10.09375,7.0625 L 336.375,568 l -9.09375,-2.03125 -9.09375,-5.5625 -1.5,-3.53125 6.0625,-8.40625 19.6875,2.34375 13.65625,-1.5 2,-10.09375 z"
             id="path3148"
             inkscape:connector-curvature="0"
             sodipodi:nodetypes="cccccccsccccccccccccccccccccccccccccccccccccccc" />
          <path
             style="fill:#000000;fill-opacity:1;stroke:#000000;stroke-width:21.10091782;stroke-linejoin:bevel;stroke-miterlimit:4;stroke-opacity:1;stroke-dasharray:none"
             d="m 336.88588,501.82905 14.14213,10.10152 14.64721,-4.04061 2.52538,-11.61675 -3.03045,-8.5863 -21.21321,-0.50508 -7.57614,3.53554 z"
             id="path3150"
             inkscape:connector-curvature="0"
             sodipodi:nodetypes="cccccccc" />
          <path
             style="fill:#000000;fill-opacity:1;fill-rule:nonzero;stroke:#000000;stroke-width:21.10091782;stroke-linejoin:bevel;stroke-miterlimit:4;stroke-opacity:1;stroke-dasharray:none"
             d="m 313.14729,489.20214 13.63706,2.02031 2.52538,-7.57615 -6.06092,-9.59645 -1.51522,-1.01015 -0.50508,12.12183 z"
             id="path3152"
             inkscape:connector-curvature="0"
             sodipodi:nodetypes="ccccccc" />
          <path
             style="fill:#000000;fill-opacity:1;fill-rule:nonzero;stroke:#000000;stroke-width:21.10091782;stroke-linejoin:bevel;stroke-miterlimit:4;stroke-opacity:1;stroke-dasharray:none"
             d="m 326.27927,500.81889 0,12.12183 -5.05076,4.04061 -1.01015,-1.01015 z"
             id="path3154"
             inkscape:connector-curvature="0" />
          <path
             style="fill:#000000;fill-opacity:1;fill-rule:nonzero;stroke:#000000;stroke-width:21.10091782;stroke-linejoin:bevel;stroke-miterlimit:4;stroke-opacity:1;stroke-dasharray:none"
             d="m 320.21836,499.80874 -3.53554,14.14214 -3.03045,-3.03046 2.0203,-6.56599 z"
             id="path3156"
             inkscape:connector-curvature="0" />
          <path
             style="fill:#000000;fill-opacity:1;fill-rule:nonzero;stroke:#000000;stroke-width:21.10091782;stroke-linejoin:bevel;stroke-miterlimit:4;stroke-opacity:1;stroke-dasharray:none"
             d="m 316.68282,542.74022 0.50508,-11.11167 2.0203,2.0203 -0.50507,12.12183 z"
             id="path3158"
             inkscape:connector-curvature="0" />
          <path
             style="fill:#000000;fill-opacity:1;fill-rule:nonzero;stroke:#000000;stroke-width:21.10091782;stroke-linejoin:bevel;stroke-miterlimit:4;stroke-opacity:1;stroke-dasharray:none"
             d="m 322.23866,547.28591 1.51523,-10.10153 2.52538,11.11168 z"
             id="path3160"
             inkscape:connector-curvature="0" />
          <path
             style="fill:#000000;fill-opacity:1;fill-rule:nonzero;stroke:#000000;stroke-width:21.10091782;stroke-linejoin:bevel;stroke-miterlimit:4;stroke-opacity:1;stroke-dasharray:none"
             d="m 330.82496,548.29606 4.54569,-9.09137 0,9.59645 z"
             id="path3162"
             inkscape:connector-curvature="0" />
          <path
             style="fill:#000000;fill-opacity:1;fill-rule:nonzero;stroke:#000000;stroke-width:21.10091782;stroke-linejoin:bevel;stroke-miterlimit:4;stroke-opacity:1;stroke-dasharray:none"
             d="m 342.94679,550.31637 1.51523,-11.11168 2.0203,10.6066 z"
             id="path3164"
             inkscape:connector-curvature="0" />
          <path
             style="fill:#000000;fill-opacity:1;stroke:#000000;stroke-width:21.10091782;stroke-linejoin:bevel;stroke-miterlimit:4;stroke-opacity:1;stroke-dasharray:none"
             d="m 319.2082,560.92297 0.50508,10.10152 3.53553,-7.57614 z"
             id="path3166"
             inkscape:connector-curvature="0" />
          <path
             style="fill:#000000;fill-opacity:1;fill-rule:nonzero;stroke:#000000;stroke-width:21.10091782;stroke-linejoin:bevel;stroke-miterlimit:4;stroke-opacity:1;stroke-dasharray:none"
             d="m 327.28942,565.97373 0,11.11168 4.04062,-9.59645 z"
             id="path3168"
             inkscape:connector-curvature="0" />
          <path
             style="fill:#000000;fill-opacity:1;fill-rule:nonzero;stroke:#000000;stroke-width:21.10091782;stroke-linejoin:bevel;stroke-miterlimit:4;stroke-opacity:1;stroke-dasharray:none"
             d="m 337.89603,566.47881 0,10.6066 6.06091,-12.62691 z"
             id="path3170"
             inkscape:connector-curvature="0" />
          <path
             style="fill:#000000;fill-opacity:1;fill-rule:nonzero;stroke:#000000;stroke-width:21.10091782;stroke-linejoin:bevel;stroke-miterlimit:4;stroke-opacity:1;stroke-dasharray:none"
             d="m 348.50263,561.93312 2.52538,7.07107 5.05076,-4.54569 -2.0203,-4.54568 z"
             id="path3172"
             inkscape:connector-curvature="0" />
        </g>
        <path
           style="fill:#000000;fill-opacity:1;fill-rule:nonzero;stroke:#000000;stroke-width:8;stroke-linecap:butt;stroke-linejoin:bevel;stroke-miterlimit:4;stroke-opacity:1;stroke-dasharray:none;stroke-dashoffset:0"
           d="m 412.59681,498.34402 2.12132,-37.47666 -6.36396,-2.12132 -2.82843,41.36575 c 0,0 4.24264,3.53553 7.07107,-1.76777 z"
           id="path3174"
           inkscape:connector-curvature="0" />
        <g
           id="g3176"
           transform="matrix(0.35825803,0.12406071,-0.12406071,0.35825803,339.04596,252.88013)"
           style="fill:#000000;fill-opacity:1;stroke:#000000;stroke-width:21.10091782;stroke-linejoin:bevel;stroke-miterlimit:4;stroke-opacity:1;stroke-dasharray:none">
          <path
             inkscape:connector-curvature="0"
             id="path3178"
             d="m 323.75389,535.66916 -4.04061,13.63705 -4.54569,7.57615 0.50508,8.5863 16.16244,10.10152 31.31473,-13.13198 c 0,0 7.07107,-9.09138 7.07107,-11.61676 0,-2.52538 -3.03046,-24.24366 -3.03046,-24.24366 z"
             style="fill:#000000;fill-opacity:1;fill-rule:nonzero;stroke:#000000;stroke-width:21.10091782;stroke-linejoin:bevel;stroke-miterlimit:4;stroke-opacity:1;stroke-dasharray:none" />
          <path
             sodipodi:nodetypes="cccccccsccccccccccccccccccccccccccccccccccccccc"
             inkscape:connector-curvature="0"
             id="path3180"
             d="m 352.55584,441.72462 -21.21209,7.05663 -6.0625,7.09375 -4.0625,18.6875 0,11.59375 -6.5625,2.03125 -8.0625,4.03125 c 0,0 -2.53125,11.13594 -2.53125,13.15625 0,2.0203 5.03125,8.0625 5.03125,8.0625 l 3.5625,10.625 1,17.65625 6.46875,5.625 -0.40625,-0.0625 -5.5625,8.59375 0,12.625 1,6.5625 4.0625,5.0625 8.0625,3.53125 10.125,0 24.21875,-10.09375 11.625,-11.625 0,-12.125 -0.50666,-10.10469 0.3125,-3.98906 -0.31758,-0.0625 4.05473,0.005 15.64023,1.53553 14.66053,-4.56329 9.08281,-11.12072 5.04568,-15.12849 0.51444,-20.21796 -5.04219,-17.16053 -14.64769,-17.18751 -30.31599,-9.58867 z m 9.31916,96.08788 2.78125,14.03125 -10.09375,7.0625 L 336.375,568 l -9.09375,-2.03125 -9.09375,-5.5625 -1.5,-3.53125 6.0625,-8.40625 19.6875,2.34375 13.65625,-1.5 2,-10.09375 z"
             style="fill:#000000;fill-opacity:1;stroke:#000000;stroke-width:21.10091782;stroke-linecap:butt;stroke-linejoin:bevel;stroke-miterlimit:4;stroke-opacity:1;stroke-dasharray:none;stroke-dashoffset:0" />
          <path
             sodipodi:nodetypes="cccccccc"
             inkscape:connector-curvature="0"
             id="path3182"
             d="m 336.88588,501.82905 14.14213,10.10152 14.64721,-4.04061 2.52538,-11.61675 -3.03045,-8.5863 -21.21321,-0.50508 -7.57614,3.53554 z"
             style="fill:#000000;fill-opacity:1;stroke:#000000;stroke-width:21.10091782;stroke-linejoin:bevel;stroke-miterlimit:4;stroke-opacity:1;stroke-dasharray:none" />
          <path
             sodipodi:nodetypes="ccccccc"
             inkscape:connector-curvature="0"
             id="path3184"
             d="m 313.14729,489.20214 13.63706,2.02031 2.52538,-7.57615 -6.06092,-9.59645 -1.51522,-1.01015 -0.50508,12.12183 z"
             style="fill:#000000;fill-opacity:1;fill-rule:nonzero;stroke:#000000;stroke-width:21.10091782;stroke-linejoin:bevel;stroke-miterlimit:4;stroke-opacity:1;stroke-dasharray:none" />
          <path
             inkscape:connector-curvature="0"
             id="path3186"
             d="m 326.27927,500.81889 0,12.12183 -5.05076,4.04061 -1.01015,-1.01015 z"
             style="fill:#000000;fill-opacity:1;fill-rule:nonzero;stroke:#000000;stroke-width:21.10091782;stroke-linejoin:bevel;stroke-miterlimit:4;stroke-opacity:1;stroke-dasharray:none" />
          <path
             inkscape:connector-curvature="0"
             id="path3188"
             d="m 320.21836,499.80874 -3.53554,14.14214 -3.03045,-3.03046 2.0203,-6.56599 z"
             style="fill:#000000;fill-opacity:1;fill-rule:nonzero;stroke:#000000;stroke-width:21.10091782;stroke-linejoin:bevel;stroke-miterlimit:4;stroke-opacity:1;stroke-dasharray:none" />
          <path
             inkscape:connector-curvature="0"
             id="path3190"
             d="m 316.68282,542.74022 0.50508,-11.11167 2.0203,2.0203 -0.50507,12.12183 z"
             style="fill:#000000;fill-opacity:1;fill-rule:nonzero;stroke:#000000;stroke-width:21.10091782;stroke-linejoin:bevel;stroke-miterlimit:4;stroke-opacity:1;stroke-dasharray:none" />
          <path
             inkscape:connector-curvature="0"
             id="path3192"
             d="m 322.23866,547.28591 1.51523,-10.10153 2.52538,11.11168 z"
             style="fill:#000000;fill-opacity:1;fill-rule:nonzero;stroke:#000000;stroke-width:21.10091782;stroke-linejoin:bevel;stroke-miterlimit:4;stroke-opacity:1;stroke-dasharray:none" />
          <path
             inkscape:connector-curvature="0"
             id="path3194"
             d="m 330.82496,548.29606 4.54569,-9.09137 0,9.59645 z"
             style="fill:#000000;fill-opacity:1;fill-rule:nonzero;stroke:#000000;stroke-width:21.10091782;stroke-linejoin:bevel;stroke-miterlimit:4;stroke-opacity:1;stroke-dasharray:none" />
          <path
             inkscape:connector-curvature="0"
             id="path3196"
             d="m 342.94679,550.31637 1.51523,-11.11168 2.0203,10.6066 z"
             style="fill:#000000;fill-opacity:1;fill-rule:nonzero;stroke:#000000;stroke-width:21.10091782;stroke-linejoin:bevel;stroke-miterlimit:4;stroke-opacity:1;stroke-dasharray:none" />
          <path
             inkscape:connector-curvature="0"
             id="path3198"
             d="m 319.2082,560.92297 0.50508,10.10152 3.53553,-7.57614 z"
             style="fill:#000000;fill-opacity:1;stroke:#000000;stroke-width:21.10091782;stroke-linejoin:bevel;stroke-miterlimit:4;stroke-opacity:1;stroke-dasharray:none" />
          <path
             inkscape:connector-curvature="0"
             id="path3200"
             d="m 327.28942,565.97373 0,11.11168 4.04062,-9.59645 z"
             style="fill:#000000;fill-opacity:1;fill-rule:nonzero;stroke:#000000;stroke-width:21.10091782;stroke-linejoin:bevel;stroke-miterlimit:4;stroke-opacity:1;stroke-dasharray:none" />
          <path
             inkscape:connector-curvature="0"
             id="path3202"
             d="m 337.89603,566.47881 0,10.6066 6.06091,-12.62691 z"
             style="fill:#000000;fill-opacity:1;fill-rule:nonzero;stroke:#000000;stroke-width:21.10091782;stroke-linejoin:bevel;stroke-miterlimit:4;stroke-opacity:1;stroke-dasharray:none" />
          <path
             inkscape:connector-curvature="0"
             id="path3204"
             d="m 348.50263,561.93312 2.52538,7.07107 5.05076,-4.54569 -2.0203,-4.54568 z"
             style="fill:#000000;fill-opacity:1;fill-rule:nonzero;stroke:#000000;stroke-width:21.10091782;stroke-linejoin:bevel;stroke-miterlimit:4;stroke-opacity:1;stroke-dasharray:none" />
        </g>
        <path
           style="fill:#000000;fill-opacity:1;fill-rule:nonzero;stroke:#000000;stroke-width:8;stroke-linecap:butt;stroke-linejoin:bevel;stroke-miterlimit:4;stroke-opacity:1;stroke-dasharray:none;stroke-dashoffset:0"
           d="m 407.64706,458.39248 6.71752,-35.35534 -10e-6,38.18377 c 0,0 -6.0104,3.53553 -6.71751,-2.82843 z"
           id="path3206"
           inkscape:connector-curvature="0"
           sodipodi:nodetypes="cccc" />
      </g>
      <path
         style="fill:#ffffff;fill-opacity:1;fill-rule:nonzero;stroke:#000000;stroke-width:2.60854387;stroke-linecap:butt;stroke-linejoin:miter;stroke-miterlimit:4;stroke-opacity:1;stroke-dasharray:none;stroke-dashoffset:0"
         d="m 599.26342,737.34841 14.75617,-138.33892 23.97875,5.53355 -11.98939,138.33893 c 0,0 -18.4452,13.83389 -26.74553,-5.53356 z"
         id="path3208"
         inkscape:connector-curvature="0"
         sodipodi:nodetypes="ccccc" />
      <path
         style="fill:#000000;fill-opacity:1;fill-rule:nonzero;stroke:none"
         d="m 604.797,744.7265 4.61128,-25.82328 12.91164,-6.45581 4.15017,-20.28972 0,-21.67309 -19.82859,-5.99469 -8.76144,42.88506 0,31.35683 7.83919,8.76148 z"
         id="path3210"
         inkscape:connector-curvature="0" />
      <g
         id="g3212"
         transform="matrix(0.98897831,0,0,0.98897831,247.40597,147.37709)"
         style="stroke-width:2.63761473;stroke-miterlimit:4;stroke-dasharray:none">
        <path
           inkscape:connector-curvature="0"
           id="path3214"
           d="m 323.75389,535.66916 -4.04061,13.63705 -4.54569,7.57615 0.50508,8.5863 16.16244,10.10152 31.31473,-13.13198 c 0,0 7.07107,-9.09138 7.07107,-11.61676 0,-2.52538 -3.03046,-24.24366 -3.03046,-24.24366 z"
           style="fill:#000000;fill-opacity:1;fill-rule:nonzero;stroke:none" />
        <path
           sodipodi:nodetypes="cccccccsccccccccccccccccccccccccccccccccccccccc"
           inkscape:connector-curvature="0"
           id="path3216"
           d="m 352.55584,441.72462 -21.21209,7.05663 -6.0625,7.09375 -4.0625,18.6875 0,11.59375 -6.5625,2.03125 -8.0625,4.03125 c 0,0 -2.53125,11.13594 -2.53125,13.15625 0,2.0203 5.03125,8.0625 5.03125,8.0625 l 3.5625,10.625 1,17.65625 6.46875,5.625 -0.40625,-0.0625 -5.5625,8.59375 0,12.625 1,6.5625 4.0625,5.0625 8.0625,3.53125 10.125,0 24.21875,-10.09375 11.625,-11.625 0,-12.125 -0.50666,-10.10469 0.3125,-3.98906 -0.31758,-0.0625 4.05473,0.005 15.64023,1.53553 14.66053,-4.56329 9.08281,-11.12072 5.04568,-15.12849 0.51444,-20.21796 -5.04219,-17.16053 -14.64769,-17.18751 -30.31599,-9.58867 z m 9.31916,96.08788 2.78125,14.03125 -10.09375,7.0625 L 336.375,568 l -9.09375,-2.03125 -9.09375,-5.5625 -1.5,-3.53125 6.0625,-8.40625 19.6875,2.34375 13.65625,-1.5 2,-10.09375 z"
           style="fill:#ffffff;fill-opacity:1;stroke:#000000;stroke-width:2.63761473;stroke-linecap:butt;stroke-linejoin:miter;stroke-miterlimit:4;stroke-opacity:1;stroke-dasharray:none;stroke-dashoffset:0" />
        <path
           sodipodi:nodetypes="cccccccc"
           inkscape:connector-curvature="0"
           id="path3218"
           d="m 336.88588,501.82905 14.14213,10.10152 14.64721,-4.04061 2.52538,-11.61675 -3.03045,-8.5863 -21.21321,-0.50508 -7.57614,3.53554 z"
           style="fill:#000000;fill-opacity:1;stroke:none" />
        <path
           sodipodi:nodetypes="ccccccc"
           inkscape:connector-curvature="0"
           id="path3220"
           d="m 313.14729,489.20214 13.63706,2.02031 2.52538,-7.57615 -6.06092,-9.59645 -1.51522,-1.01015 -0.50508,12.12183 z"
           style="fill:#000000;fill-opacity:1;fill-rule:nonzero;stroke:none" />
        <path
           inkscape:connector-curvature="0"
           id="path3222"
           d="m 326.27927,500.81889 0,12.12183 -5.05076,4.04061 -1.01015,-1.01015 z"
           style="fill:#000000;fill-opacity:1;fill-rule:nonzero;stroke:none" />
        <path
           inkscape:connector-curvature="0"
           id="path3224"
           d="m 320.21836,499.80874 -3.53554,14.14214 -3.03045,-3.03046 2.0203,-6.56599 z"
           style="fill:#000000;fill-opacity:1;fill-rule:nonzero;stroke:none" />
        <path
           inkscape:connector-curvature="0"
           id="path3226"
           d="m 316.68282,542.74022 0.50508,-11.11167 2.0203,2.0203 -0.50507,12.12183 z"
           style="fill:#000000;fill-opacity:1;fill-rule:nonzero;stroke:none" />
        <path
           inkscape:connector-curvature="0"
           id="path3228"
           d="m 322.23866,547.28591 1.51523,-10.10153 2.52538,11.11168 z"
           style="fill:#000000;fill-opacity:1;fill-rule:nonzero;stroke:none" />
        <path
           inkscape:connector-curvature="0"
           id="path3230"
           d="m 330.82496,548.29606 4.54569,-9.09137 0,9.59645 z"
           style="fill:#000000;fill-opacity:1;fill-rule:nonzero;stroke:none" />
        <path
           inkscape:connector-curvature="0"
           id="path3232"
           d="m 342.94679,550.31637 1.51523,-11.11168 2.0203,10.6066 z"
           style="fill:#000000;fill-opacity:1;fill-rule:nonzero;stroke:none" />
        <path
           inkscape:connector-curvature="0"
           id="path3234"
           d="m 319.2082,560.92297 0.50508,10.10152 3.53553,-7.57614 z"
           style="fill:#000000;fill-opacity:1;stroke:none" />
        <path
           inkscape:connector-curvature="0"
           id="path3236"
           d="m 327.28942,565.97373 0,11.11168 4.04062,-9.59645 z"
           style="fill:#000000;fill-opacity:1;fill-rule:nonzero;stroke:none" />
        <path
           inkscape:connector-curvature="0"
           id="path3238"
           d="m 337.89603,566.47881 0,10.6066 6.06091,-12.62691 z"
           style="fill:#000000;fill-opacity:1;fill-rule:nonzero;stroke:none" />
        <path
           inkscape:connector-curvature="0"
           id="path3240"
           d="m 348.50263,561.93312 2.52538,7.07107 5.05076,-4.54569 -2.0203,-4.54568 z"
           style="fill:#000000;fill-opacity:1;fill-rule:nonzero;stroke:none" />
      </g>
      <path
         style="fill:#000000;fill-opacity:1;fill-rule:nonzero;stroke:none"
         d="m 587.7352,590.24801 -5.53356,13.37278 4.15017,11.98936 10.14486,6.45584 6.4558,0.46111 15.67842,1.84453 6.91695,11.98936 18.44519,8.30033 17.98406,5.9947 13.80307,-11.00609 9.25341,-27.26767 -32.7402,-44.26847 -45.65187,0 z"
         id="path3242"
         inkscape:connector-curvature="0"
         sodipodi:nodetypes="cccccccccccccc" />
      <path
         style="fill:#ffffff;fill-opacity:1;fill-rule:nonzero;stroke:#000000;stroke-width:2.60854387;stroke-opacity:1"
         d="m 614.94186,606.38757 13.83389,-87.61465 17.52292,1.8445 -8.30033,93.14823 c 0,0 -15.67842,10.14484 -23.05648,-7.37808 z"
         id="path3244"
         inkscape:connector-curvature="0"
         sodipodi:nodetypes="ccccc" />
      <path
         style="fill:#000000;fill-opacity:1;fill-rule:nonzero;stroke:none"
         d="m 622.31992,615.14904 2.30567,-18.90633 20.75083,-3.68903 -1.38339,-20.28972 -29.5123,-0.92226 -3.22792,27.66779 3.68905,16.13955 z"
         id="path3246"
         inkscape:connector-curvature="0" />
      <g
         transform="matrix(-0.98643779,0.07084176,0.07084176,0.98643779,970.88891,32.319387)"
         id="g3248"
         style="stroke-width:2.63761473;stroke-miterlimit:4;stroke-dasharray:none">
        <path
           style="fill:#000000;fill-opacity:1;fill-rule:nonzero;stroke:none"
           d="m 323.75389,535.66916 -4.04061,13.63705 -4.54569,7.57615 0.50508,8.5863 16.16244,10.10152 31.31473,-13.13198 c 0,0 7.07107,-9.09138 7.07107,-11.61676 0,-2.52538 -3.03046,-24.24366 -3.03046,-24.24366 z"
           id="path3250"
           inkscape:connector-curvature="0" />
        <path
           style="fill:#ffffff;fill-opacity:1;stroke:#000000;stroke-width:2.63761473;stroke-linecap:butt;stroke-linejoin:miter;stroke-miterlimit:4;stroke-opacity:1;stroke-dasharray:none;stroke-dashoffset:0"
           d="m 352.55584,441.72462 -21.21209,7.05663 -6.0625,7.09375 -4.0625,18.6875 0,11.59375 -6.5625,2.03125 -8.0625,4.03125 c 0,0 -2.53125,11.13594 -2.53125,13.15625 0,2.0203 5.03125,8.0625 5.03125,8.0625 l 3.5625,10.625 1,17.65625 6.46875,5.625 -0.40625,-0.0625 -5.5625,8.59375 0,12.625 1,6.5625 4.0625,5.0625 8.0625,3.53125 10.125,0 24.21875,-10.09375 11.625,-11.625 0,-12.125 -0.50666,-10.10469 0.3125,-3.98906 -0.31758,-0.0625 4.05473,0.005 15.64023,1.53553 14.66053,-4.56329 9.08281,-11.12072 5.04568,-15.12849 0.51444,-20.21796 -5.04219,-17.16053 -14.64769,-17.18751 -30.31599,-9.58867 z m 9.31916,96.08788 2.78125,14.03125 -10.09375,7.0625 L 336.375,568 l -9.09375,-2.03125 -9.09375,-5.5625 -1.5,-3.53125 6.0625,-8.40625 19.6875,2.34375 13.65625,-1.5 2,-10.09375 z"
           id="path3252"
           inkscape:connector-curvature="0"
           sodipodi:nodetypes="cccccccsccccccccccccccccccccccccccccccccccccccc" />
        <path
           style="fill:#000000;fill-opacity:1;stroke:none"
           d="m 336.88588,501.82905 14.14213,10.10152 14.64721,-4.04061 2.52538,-11.61675 -3.03045,-8.5863 -21.21321,-0.50508 -7.57614,3.53554 z"
           id="path3254"
           inkscape:connector-curvature="0"
           sodipodi:nodetypes="cccccccc" />
        <path
           style="fill:#000000;fill-opacity:1;fill-rule:nonzero;stroke:none"
           d="m 313.14729,489.20214 13.63706,2.02031 2.52538,-7.57615 -6.06092,-9.59645 -1.51522,-1.01015 -0.50508,12.12183 z"
           id="path3256"
           inkscape:connector-curvature="0"
           sodipodi:nodetypes="ccccccc" />
        <path
           style="fill:#000000;fill-opacity:1;fill-rule:nonzero;stroke:none"
           d="m 326.27927,500.81889 0,12.12183 -5.05076,4.04061 -1.01015,-1.01015 z"
           id="path3258"
           inkscape:connector-curvature="0" />
        <path
           style="fill:#000000;fill-opacity:1;fill-rule:nonzero;stroke:none"
           d="m 320.21836,499.80874 -3.53554,14.14214 -3.03045,-3.03046 2.0203,-6.56599 z"
           id="path3260"
           inkscape:connector-curvature="0" />
        <path
           style="fill:#000000;fill-opacity:1;fill-rule:nonzero;stroke:none"
           d="m 316.68282,542.74022 0.50508,-11.11167 2.0203,2.0203 -0.50507,12.12183 z"
           id="path3262"
           inkscape:connector-curvature="0" />
        <path
           style="fill:#000000;fill-opacity:1;fill-rule:nonzero;stroke:none"
           d="m 322.23866,547.28591 1.51523,-10.10153 2.52538,11.11168 z"
           id="path3264"
           inkscape:connector-curvature="0" />
        <path
           style="fill:#000000;fill-opacity:1;fill-rule:nonzero;stroke:none"
           d="m 330.82496,548.29606 4.54569,-9.09137 0,9.59645 z"
           id="path3266"
           inkscape:connector-curvature="0" />
        <path
           style="fill:#000000;fill-opacity:1;fill-rule:nonzero;stroke:none"
           d="m 342.94679,550.31637 1.51523,-11.11168 2.0203,10.6066 z"
           id="path3268"
           inkscape:connector-curvature="0" />
        <path
           style="fill:#000000;fill-opacity:1;stroke:none"
           d="m 319.2082,560.92297 0.50508,10.10152 3.53553,-7.57614 z"
           id="path3270"
           inkscape:connector-curvature="0" />
        <path
           style="fill:#000000;fill-opacity:1;fill-rule:nonzero;stroke:none"
           d="m 327.28942,565.97373 0,11.11168 4.04062,-9.59645 z"
           id="path3272"
           inkscape:connector-curvature="0" />
        <path
           style="fill:#000000;fill-opacity:1;fill-rule:nonzero;stroke:none"
           d="m 337.89603,566.47881 0,10.6066 6.06091,-12.62691 z"
           id="path3274"
           inkscape:connector-curvature="0" />
        <path
           style="fill:#000000;fill-opacity:1;fill-rule:nonzero;stroke:none"
           d="m 348.50263,561.93312 2.52538,7.07107 5.05076,-4.54569 -2.0203,-4.54568 z"
           id="path3276"
           inkscape:connector-curvature="0" />
      </g>
      <path
         style="fill:#000000;fill-opacity:1;fill-rule:nonzero;stroke:none"
         d="m 593.26875,522.46195 11.98939,5.53356 13.83389,-2.30564 10.14486,-3.68903 9.22259,1.38339 14.75614,3.22789 11.98939,-2.76678 10.60597,-8.30034 3.68906,-11.52822 0,-8.76147 -30.43459,-13.83389 -18.90631,-5.9947 -25.36214,29.97345 z"
         id="path3278"
         inkscape:connector-curvature="0" />
      <path
         style="fill:#ffffff;fill-opacity:1;fill-rule:nonzero;stroke:#000000;stroke-width:2.60854387;stroke-linecap:butt;stroke-linejoin:miter;stroke-miterlimit:4;stroke-opacity:1;stroke-dasharray:none;stroke-dashoffset:0"
         d="m 648.1432,503.0945 5.53356,-97.75951 -16.60067,-5.53355 -7.37809,107.90437 c 0,0 11.06712,9.22258 18.4452,-4.61131 z"
         id="path3280"
         inkscape:connector-curvature="0" />
      <path
         style="fill:#000000;fill-opacity:1;fill-rule:nonzero;stroke:none"
         d="m 634.77042,510.47259 1.84453,-18.4452 15.21728,7.37808 4.6113,-18.44519 -26.74553,-9.22261 -8.76147,12.91164 0,29.97344 z"
         id="path3282"
         inkscape:connector-curvature="0" />
      <g
         id="g3284"
         transform="matrix(0.93453176,0.3236178,-0.3236178,0.93453176,456.28259,-137.2088)"
         style="stroke-width:2.63761473;stroke-miterlimit:4;stroke-dasharray:none">
        <path
           inkscape:connector-curvature="0"
           id="path3286"
           d="m 323.75389,535.66916 -4.04061,13.63705 -4.54569,7.57615 0.50508,8.5863 16.16244,10.10152 31.31473,-13.13198 c 0,0 7.07107,-9.09138 7.07107,-11.61676 0,-2.52538 -3.03046,-24.24366 -3.03046,-24.24366 z"
           style="fill:#000000;fill-opacity:1;fill-rule:nonzero;stroke:none" />
        <path
           sodipodi:nodetypes="cccccccsccccccccccccccccccccccccccccccccccccccc"
           inkscape:connector-curvature="0"
           id="path3288"
           d="m 352.55584,441.72462 -21.21209,7.05663 -6.0625,7.09375 -4.0625,18.6875 0,11.59375 -6.5625,2.03125 -8.0625,4.03125 c 0,0 -2.53125,11.13594 -2.53125,13.15625 0,2.0203 5.03125,8.0625 5.03125,8.0625 l 3.5625,10.625 1,17.65625 6.46875,5.625 -0.40625,-0.0625 -5.5625,8.59375 0,12.625 1,6.5625 4.0625,5.0625 8.0625,3.53125 10.125,0 24.21875,-10.09375 11.625,-11.625 0,-12.125 -0.50666,-10.10469 0.3125,-3.98906 -0.31758,-0.0625 4.05473,0.005 15.64023,1.53553 14.66053,-4.56329 9.08281,-11.12072 5.04568,-15.12849 0.51444,-20.21796 -5.04219,-17.16053 -14.64769,-17.18751 -30.31599,-9.58867 z m 9.31916,96.08788 2.78125,14.03125 -10.09375,7.0625 L 336.375,568 l -9.09375,-2.03125 -9.09375,-5.5625 -1.5,-3.53125 6.0625,-8.40625 19.6875,2.34375 13.65625,-1.5 2,-10.09375 z"
           style="fill:#ffffff;fill-opacity:1;stroke:#000000;stroke-width:2.63761473;stroke-linecap:butt;stroke-linejoin:miter;stroke-miterlimit:4;stroke-opacity:1;stroke-dasharray:none;stroke-dashoffset:0" />
        <path
           sodipodi:nodetypes="cccccccc"
           inkscape:connector-curvature="0"
           id="path3290"
           d="m 336.88588,501.82905 14.14213,10.10152 14.64721,-4.04061 2.52538,-11.61675 -3.03045,-8.5863 -21.21321,-0.50508 -7.57614,3.53554 z"
           style="fill:#000000;fill-opacity:1;stroke:none" />
        <path
           sodipodi:nodetypes="ccccccc"
           inkscape:connector-curvature="0"
           id="path3292"
           d="m 313.14729,489.20214 13.63706,2.02031 2.52538,-7.57615 -6.06092,-9.59645 -1.51522,-1.01015 -0.50508,12.12183 z"
           style="fill:#000000;fill-opacity:1;fill-rule:nonzero;stroke:none" />
        <path
           inkscape:connector-curvature="0"
           id="path3294"
           d="m 326.27927,500.81889 0,12.12183 -5.05076,4.04061 -1.01015,-1.01015 z"
           style="fill:#000000;fill-opacity:1;fill-rule:nonzero;stroke:none" />
        <path
           inkscape:connector-curvature="0"
           id="path3296"
           d="m 320.21836,499.80874 -3.53554,14.14214 -3.03045,-3.03046 2.0203,-6.56599 z"
           style="fill:#000000;fill-opacity:1;fill-rule:nonzero;stroke:none" />
        <path
           inkscape:connector-curvature="0"
           id="path3298"
           d="m 316.68282,542.74022 0.50508,-11.11167 2.0203,2.0203 -0.50507,12.12183 z"
           style="fill:#000000;fill-opacity:1;fill-rule:nonzero;stroke:none" />
        <path
           inkscape:connector-curvature="0"
           id="path3300"
           d="m 322.23866,547.28591 1.51523,-10.10153 2.52538,11.11168 z"
           style="fill:#000000;fill-opacity:1;fill-rule:nonzero;stroke:none" />
        <path
           inkscape:connector-curvature="0"
           id="path3302"
           d="m 330.82496,548.29606 4.54569,-9.09137 0,9.59645 z"
           style="fill:#000000;fill-opacity:1;fill-rule:nonzero;stroke:none" />
        <path
           inkscape:connector-curvature="0"
           id="path3304"
           d="m 342.94679,550.31637 1.51523,-11.11168 2.0203,10.6066 z"
           style="fill:#000000;fill-opacity:1;fill-rule:nonzero;stroke:none" />
        <path
           inkscape:connector-curvature="0"
           id="path3306"
           d="m 319.2082,560.92297 0.50508,10.10152 3.53553,-7.57614 z"
           style="fill:#000000;fill-opacity:1;stroke:none" />
        <path
           inkscape:connector-curvature="0"
           id="path3308"
           d="m 327.28942,565.97373 0,11.11168 4.04062,-9.59645 z"
           style="fill:#000000;fill-opacity:1;fill-rule:nonzero;stroke:none" />
        <path
           inkscape:connector-curvature="0"
           id="path3310"
           d="m 337.89603,566.47881 0,10.6066 6.06091,-12.62691 z"
           style="fill:#000000;fill-opacity:1;fill-rule:nonzero;stroke:none" />
        <path
           inkscape:connector-curvature="0"
           id="path3312"
           d="m 348.50263,561.93312 2.52538,7.07107 5.05076,-4.54569 -2.0203,-4.54568 z"
           style="fill:#000000;fill-opacity:1;fill-rule:nonzero;stroke:none" />
      </g>
      <path
         style="fill:#ffffff;fill-opacity:1;fill-rule:nonzero;stroke:#000000;stroke-width:2.60854387;stroke-linecap:butt;stroke-linejoin:miter;stroke-miterlimit:4;stroke-opacity:1;stroke-dasharray:none;stroke-dashoffset:0"
         d="m 635.23156,398.87916 17.52295,-92.22595 -3e-5,99.60404 c 0,0 -15.67839,9.22258 -17.52292,-7.37809 z"
         id="path3314"
         inkscape:connector-curvature="0"
         sodipodi:nodetypes="cccc" />
      <path
         style="fill:#000000;fill-opacity:1;fill-rule:nonzero;stroke:none"
         d="m 650.49921,324.78269 -9.45597,84.45161 -16.3034,0.65213 -2.60854,-0.9782 -2.28248,-1.30427 -0.65213,-1.63034 6.52136,-5.86923 9.1299,-3.91281 12.06451,-54.12728 z"
         id="path3316"
         inkscape:connector-curvature="0"
         sodipodi:nodetypes="cccccccccc" />
      <path
         style="fill:#000000;fill-opacity:1;fill-rule:nonzero;stroke:none"
         d="m 652.12955,406.95182 -7.17349,5.86923 -17.60767,0 -4.89102,-4.23889 12.06451,-3.58675 9.1299,3.91282 z"
         id="path3318"
         inkscape:connector-curvature="0"
         sodipodi:nodetypes="ccccccc" />
      <text
         sodipodi:linespacing="89.999998%"
         id="text3320"
         y="292.27411"
         x="633.90186"
         style="font-size:12.39603138px;font-style:normal;font-weight:normal;line-height:89.99999762%;letter-spacing:0px;word-spacing:0px;fill:#000000;fill-opacity:1;stroke:#ffffff;stroke-width:6.8504281;stroke-linejoin:miter;stroke-miterlimit:4;stroke-opacity:1;stroke-dasharray:none;font-family:Sans"
         xml:space="preserve"
         transform="scale(0.88042685,1.1358127)"><tspan
           style="font-size:39.66730118px;font-style:normal;font-variant:normal;font-weight:normal;font-stretch:condensed;text-align:start;line-height:89.99999762%;writing-mode:lr-tb;text-anchor:start;stroke:#ffffff;stroke-width:6.8504281;stroke-linejoin:miter;stroke-miterlimit:4;stroke-opacity:1;stroke-dasharray:none;font-family:Impact;-inkscape-font-specification:Impact Condensed"
           y="292.27411"
           x="633.90186"
           id="tspan3322"
           sodipodi:role="line">HEADS ON</tspan><tspan
           style="font-size:39.66730118px;font-style:normal;font-variant:normal;font-weight:normal;font-stretch:condensed;text-align:start;line-height:89.99999762%;writing-mode:lr-tb;text-anchor:start;stroke:#ffffff;stroke-width:6.8504281;stroke-linejoin:miter;stroke-miterlimit:4;stroke-opacity:1;stroke-dasharray:none;font-family:Impact;-inkscape-font-specification:Impact Condensed"
           id="tspan3324"
           y="327.97467"
           x="633.90186"
           sodipodi:role="line">STICK, INC</tspan></text>
      <text
         xml:space="preserve"
         style="font-size:12.39603138px;font-style:normal;font-weight:normal;line-height:89.99999762%;letter-spacing:0px;word-spacing:0px;fill:#000000;fill-opacity:1;stroke:none;font-family:Sans"
         x="633.90186"
         y="292.27411"
         id="text3326"
         sodipodi:linespacing="89.999998%"
         transform="scale(0.88042685,1.1358127)"><tspan
           sodipodi:role="line"
           id="tspan3328"
           x="633.90186"
           y="292.27411"
           style="font-size:39.66730118px;font-style:normal;font-variant:normal;font-weight:normal;font-stretch:condensed;text-align:start;line-height:89.99999762%;writing-mode:lr-tb;text-anchor:start;font-family:Impact;-inkscape-font-specification:Impact Condensed">HEADS ON</tspan><tspan
           sodipodi:role="line"
           x="633.90186"
           y="327.97467"
           id="tspan3330"
           style="font-size:39.66730118px;font-style:normal;font-variant:normal;font-weight:normal;font-stretch:condensed;text-align:start;line-height:89.99999762%;writing-mode:lr-tb;text-anchor:start;font-family:Impact;-inkscape-font-specification:Impact Condensed">STICK, INC</tspan></text>
    </g>
  </g>
</svg>
