<?xml version="1.0" encoding="UTF-8" standalone="no"?>
<!-- Created with Inkscape (http://www.inkscape.org/) -->

<svg
   xmlns:dc="http://purl.org/dc/elements/1.1/"
   xmlns:cc="http://creativecommons.org/ns#"
   xmlns:rdf="http://www.w3.org/1999/02/22-rdf-syntax-ns#"
   xmlns:svg="http://www.w3.org/2000/svg"
   xmlns="http://www.w3.org/2000/svg"
   xmlns:sodipodi="http://sodipodi.sourceforge.net/DTD/sodipodi-0.dtd"
   xmlns:inkscape="http://www.inkscape.org/namespaces/inkscape"
   width="744.09448819"
   height="1052.3622047"
   id="svg2"
   version="1.1"
   inkscape:version="0.48.2 r9819"
   sodipodi:docname="tex.svg"
   inkscape:export-filename="/Users/gtorok/jumperx/data/tex.png"
   inkscape:export-xdpi="90"
   inkscape:export-ydpi="90">
  <defs
     id="defs4" />
  <sodipodi:namedview
     id="base"
     pagecolor="#ffffff"
     bordercolor="#666666"
     borderopacity="1.0"
     inkscape:pageopacity="0.0"
     inkscape:pageshadow="2"
     inkscape:zoom="11.313708"
     inkscape:cx="544.61071"
     inkscape:cy="425.04448"
     inkscape:document-units="px"
     inkscape:current-layer="layer1"
     showgrid="true"
     showborder="false"
     borderlayer="false"
     objecttolerance="20"
     gridtolerance="4"
     inkscape:window-width="1440"
     inkscape:window-height="856"
     inkscape:window-x="18"
     inkscape:window-y="17"
     inkscape:window-maximized="0">
    <inkscape:grid
       type="xygrid"
       id="grid3757"
       empspacing="16"
       visible="true"
       enabled="true"
       snapvisiblegridlinesonly="true" />
    <inkscape:grid
       type="xygrid"
       id="grid3765"
       empspacing="1"
       visible="true"
       enabled="true"
       snapvisiblegridlinesonly="true"
       color="#ff00e0"
       opacity="0.1254902"
       empcolor="#ff00eb"
       empopacity="0.25098039"
       spacingx="64px"
       spacingy="64px" />
  </sodipodi:namedview>
  <metadata
     id="metadata7">
    <rdf:RDF>
      <cc:Work
         rdf:about="">
        <dc:format>image/svg+xml</dc:format>
        <dc:type
           rdf:resource="http://purl.org/dc/dcmitype/StillImage" />
        <dc:title></dc:title>
      </cc:Work>
    </rdf:RDF>
  </metadata>
  <g
     inkscape:label="Layer 1"
     inkscape:groupmode="layer"
     id="layer1">
    <path
       style="fill:#808080;fill-opacity:1;fill-rule:nonzero;stroke:none"
       d="m 224,156.89357 4.89132,-0.0798 2.3143,0.31921 0.39902,1.27686 -3.43155,2.31431 -2.3143,0.39901 -1.85879,2.23902 0,-3.75529 z"
       id="path3785"
       inkscape:connector-curvature="0"
       sodipodi:nodetypes="ccccccccc" />
    <path
       style="fill:#808080;fill-opacity:1;fill-rule:nonzero;stroke:none"
       d="m 234.47757,157.3724 -2.07489,3.51135 -2.1547,3.75077 -2.63351,2.55371 -2.1547,1.75568 -0.23941,1.35666 2.47391,3.51136 2.63351,0.39901 6.78331,-6.62369 2.55371,-7.74094 1.67588,-1.67588 -1.29833,-1.35666 z"
       id="path3787"
       inkscape:connector-curvature="0" />
    <path
       style="fill:#808080;fill-opacity:1;fill-rule:nonzero;stroke:none"
       d="m 244.1338,157.69161 -2.71332,3.11234 -1.37813,4.22959 -1.415,3.75076 -0.87784,0.87784 -1.51626,2.07489 1.51626,2.2345 2.87293,0.79804 3.83058,-1.59607 2.87292,-5.66605 0.69523,-4.78822 2.01809,-3.75076 -1.19705,-1.83549 z"
       id="path3789"
       inkscape:connector-curvature="0" />
    <path
       style="fill:#808080;fill-opacity:1;fill-rule:nonzero;stroke:none"
       d="m 252.11416,157.4522 -1.03745,2.39411 -1.59607,2.3143 -0.31922,4.30939 -1.14025,2.79313 -1.73268,2.55371 1.03745,2.3143 4.22959,0.87784 2.55371,-4.3892 0.39902,-3.67096 1.49174,-3.58664 0,-3.35627 0,-3.19214 z"
       id="path3791"
       inkscape:connector-curvature="0"
       sodipodi:nodetypes="cccccccccccccc" />
    <path
       style="fill:#808080;fill-opacity:1;fill-rule:nonzero;stroke:none"
       d="m 231.72439,174.53015 1.21698,-1.11724 1.11725,1.11724 -0.39901,2.1547 -0.87784,2.63352 -0.15961,2.55371 -0.55863,-3.67096 z"
       id="path3793"
       inkscape:connector-curvature="0" />
    <path
       style="fill:#808080;fill-opacity:1;fill-rule:nonzero;stroke:none"
       d="m 236.55247,175.00898 -1.43647,0.87784 -0.39902,1.27685 0.47882,2.15616 0.87784,3.43009 1.19706,-4.30939 0,-2.3941 z"
       id="path3795"
       inkscape:connector-curvature="0" />
    <path
       style="fill:#808080;fill-opacity:1;fill-rule:nonzero;stroke:none"
       d="m 240.04235,175.72721 -1.19705,1.35666 -0.15961,2.15615 1.27686,3.27049 0.95764,-3.27049 0.23941,-2.39556 z"
       id="path3797"
       inkscape:connector-curvature="0" />
    <path
       style="fill:#808080;fill-opacity:1;fill-rule:nonzero;stroke:none"
       d="m 244.2934,174.68977 -1.75568,1.51626 -0.1596,2.47391 1.03744,3.11234 1.43647,-3.43155 0.23941,-2.55371 z"
       id="path3799"
       inkscape:connector-curvature="0" />
    <path
       style="fill:#808080;fill-opacity:1;fill-rule:nonzero;stroke:none"
       d="m 246.96073,175.3282 -1.09425,1.67587 0.31921,3.11234 1.91529,2.3941 0.1596,-4.5488 -0.23941,-2.2345 z"
       id="path3801"
       inkscape:connector-curvature="0" />
    <path
       style="fill:#808080;fill-opacity:1;fill-rule:nonzero;stroke:none"
       d="m 251.23632,175.64741 -1.59607,1.19705 0.55862,2.47537 -0.0798,2.95127 0.71823,0.87784 1.11725,-3.82911 z"
       id="path3803"
       inkscape:connector-curvature="0" />
    <path
       inkscape:connector-curvature="0"
       id="path3805"
       d="m 254.16451,173.1735 -1.19705,1.35665 -0.15961,2.15616 1.27686,3.27049 0.95764,-3.27049 0.23941,-2.39556 z"
       style="fill:#808080;fill-opacity:1;fill-rule:nonzero;stroke:none" />
    <path
       inkscape:connector-curvature="0"
       id="path3807"
       d="m 229.84896,174.60996 -1.75568,1.51627 -0.1596,2.47391 1.03744,3.11234 1.43647,-3.43156 0.23941,-2.55371 z"
       style="fill:#808080;fill-opacity:1;fill-rule:nonzero;stroke:none" />
    <path
       inkscape:connector-curvature="0"
       id="path3809"
       d="m 224.88121,174.53161 1.21699,-1.11725 1.11724,1.11725 -0.39901,2.1547 -0.87784,2.63352 -0.15961,2.55371 -0.55862,-3.67096 z"
       style="fill:#808080;fill-opacity:1;fill-rule:nonzero;stroke:none" />
    <path
       style="fill:#808080;fill-opacity:1;fill-rule:nonzero;stroke:none"
       d="m 226.49722,161.9212 -1.59608,1.99509 0.71824,2.3941 1.99509,-0.1596 1.67587,-1.91529 1.99509,-2.79313 0.7781,-1.59606 -0.93771,-0.39902 -2.63351,1.91528 z"
       id="path3811"
       inkscape:connector-curvature="0" />
    <rect
       style="fill:#808080;fill-opacity:1;fill-rule:nonzero;stroke:none"
       id="rect3113"
       width="64"
       height="64"
       x="128"
       y="156.36218" />
    <rect
       y="604.36218"
       x="576"
       height="64"
       width="64"
       id="rect3883"
       style="fill:#808080;fill-opacity:1;fill-rule:nonzero;stroke:none" />
    <path
       style="fill:#808080;fill-opacity:1;fill-rule:nonzero;stroke:none"
       d="m 192,158.36218 4,1.17632 2.95512,1.6003 -0.95512,2.0804 -2.88562,1.14298 -3.11438,0 z"
       id="path3919"
       inkscape:connector-curvature="0" />
    <path
       style="fill:#808080;fill-opacity:1;fill-rule:nonzero;stroke:none"
       d="m 200,158.36218 0,4 2,2 4,-2 -1.12374,-4 L 202,157.29808 z"
       id="path3921"
       inkscape:connector-curvature="0" />
    <path
       style="fill:#808080;fill-opacity:1;fill-rule:nonzero;stroke:none"
       d="m 207.11668,159.0584 -0.16,2.5605 3.04334,1.6003 2,-1.92036 z"
       id="path3923"
       inkscape:connector-curvature="0" />
    <path
       style="fill:#808080;fill-opacity:1;fill-rule:nonzero;stroke:none"
       d="m 224,158.36218 -1.2003,2 -0.7997,2 2,2 z"
       id="path3925"
       inkscape:connector-curvature="0" />
    <path
       style="fill:#808080;fill-opacity:1;fill-rule:nonzero;stroke:none"
       d="m 214,159.21844 -4,7.14374 0,3.09822 4,2.0804 4,-7.8415 -2,-4.48086 z"
       id="path3927"
       inkscape:connector-curvature="0" />
    <path
       style="fill:#808080;fill-opacity:1;fill-rule:nonzero;stroke:none"
       d="m 210,158.36218 4,-0.90408 -1.28224,2.90408 -1.44028,0 z"
       id="path3929"
       inkscape:connector-curvature="0" />
    <path
       style="fill:#808080;fill-opacity:1;fill-rule:nonzero;stroke:none"
       d="M 217.03858,159.37848 220,163.2192 l 0.87932,-2.85702 1.12068,-2 z"
       id="path3931"
       inkscape:connector-curvature="0" />
    <path
       style="fill:#808080;fill-opacity:1;fill-rule:nonzero;stroke:none"
       d="m 221.35942,164.36218 -3.35942,2 -0.80138,2 -0.32006,4 3.12144,2 2,-3.30146 0,-4.69854 z"
       id="path3933"
       inkscape:connector-curvature="0" />
    <path
       style="fill:#808080;fill-opacity:1;fill-rule:nonzero;stroke:none"
       d="m 202.79586,166.36218 4.1608,-2.66288 3.04334,2.66288 -2,4 4,2 2,3.33942 -4,1.60032 -6,-4.1608 z"
       id="path3935"
       inkscape:connector-curvature="0" />
    <path
       style="fill:#808080;fill-opacity:1;fill-rule:nonzero;stroke:none"
       d="m 198,164.36218 1.11514,-0.82292 2.88486,2.0804 0,3.68072 -2,3.0618 -2,-3.22184 z"
       id="path3937"
       inkscape:connector-curvature="0" />
    <path
       style="fill:#808080;fill-opacity:1;fill-rule:nonzero;stroke:none"
       d="M 193.59408,165.65968 196,165.05956 l 1.23478,-0.28006 -0.20004,1.32026 0.28006,1.76034 -0.84016,1.88036 -1.84036,-0.72014 -1.72032,-1.68032 -0.40008,-1.48028 z"
       id="path3939"
       inkscape:connector-curvature="0" />
    <path
       style="fill:#808080;fill-opacity:1;fill-rule:nonzero;stroke:none"
       d="m 192.55388,170.78066 0.76016,-1.48028 2.36044,1.6003 1.84036,-0.5385 1.40026,2 1.0849,0.77894 1.75566,-0.9602 1.28024,-0.04 0,2.22126 -4.48086,1.6995 -3.24062,-1.6995 -2.68052,-3.4215 z"
       id="path3941"
       inkscape:connector-curvature="0" />
    <path
       style="fill:#808080;fill-opacity:1;fill-rule:nonzero;stroke:none"
       d="M 213.59792,172.98108 216,170.62062 l 1.15862,3.16062 1.68032,1.72032 1.16106,3.6007 -1.76118,2.68052 -2.44046,0.5794 -0.4401,-0.69942 L 216,177.30192 z"
       id="path3943"
       inkscape:connector-curvature="0" />
    <path
       style="fill:#808080;fill-opacity:1;fill-rule:nonzero;stroke:none"
       d="m 224,174.36218 -2,1.1794 -1.48074,0.5201 -0.51926,1.36026 0.79932,2.0804 3.20068,0.85984 z"
       id="path3945"
       inkscape:connector-curvature="0" />
    <path
       style="fill:#808080;fill-opacity:1;fill-rule:nonzero;stroke:none"
       d="m 192,174.36218 2.1942,0.6593 3.24062,1.3407 2.80054,0.45964 1.5203,-0.92018 1.16022,1.72034 -2.20042,1.96038 -6.71546,0.77982 -2,0 z"
       id="path3947"
       inkscape:connector-curvature="0" />
    <path
       style="fill:#808080;fill-opacity:1;fill-rule:nonzero;stroke:none"
       d="m 203.556,178.98224 0.96018,-3.24062 2.32044,0.36006 3.16338,1.88036 0.8774,2.38014 -1.92036,2.78086 -3.48068,-0.36008 z"
       id="path3949"
       inkscape:connector-curvature="0" />
    <path
       style="fill:#808080;fill-opacity:1;fill-rule:nonzero;stroke:none"
       d="m 211.23748,178.14208 3.24062,-1.7799 0.76014,1.2998 -0.36006,3.32064 -3.5607,-2.62044 z"
       id="path3951"
       inkscape:connector-curvature="0" />
    <path
       style="fill:#808080;fill-opacity:1;fill-rule:nonzero;stroke:none"
       d="m 210,188.36218 0,-2.3386 0.71738,-3.6614 1.00018,-2 1.76034,0.58044 1.16022,0.72014 0.4401,4.08078 0.92178,2.61864 z"
       id="path3953"
       inkscape:connector-curvature="0" />
    <path
       style="fill:#808080;fill-opacity:1;fill-rule:nonzero;stroke:none"
       d="m 210,156.36218 0,2 1.3975,2 1.5603,0 1.0422,-2.78406 c 0,0 2,-1.21594 2,-1.21594 z"
       id="path3955"
       inkscape:connector-curvature="0" />
    <path
       style="fill:#808080;fill-opacity:1;fill-rule:nonzero;stroke:none"
       d="m 216.5985,157.13804 0.64012,1.68032 6.40124,-1.40026 -0.04,-0.80016 -6.08116,0.04 z"
       id="path3957"
       inkscape:connector-curvature="0" />
    <path
       style="fill:#808080;fill-opacity:1;fill-rule:nonzero;stroke:none"
       d="m 205.6364,158.17824 3.96076,1.40026 -0.32006,-3.00056 -6.04116,0.20002 z"
       id="path3959"
       inkscape:connector-curvature="0" />
    <path
       style="fill:#808080;fill-opacity:1;fill-rule:nonzero;stroke:none"
       d="m 192.83394,181.34268 -0.24004,3.96076 2.20042,1.64032 3.96076,-1.76034 0.84016,-3.24062 -1.12022,-1.0402 z"
       id="path3963"
       inkscape:connector-curvature="0" />
    <path
       style="fill:#808080;fill-opacity:1;fill-rule:nonzero;stroke:none"
       d="m 200,180.98262 3.19592,-1.5603 1.84036,5.32102 -2.72052,1.61884 -2.6405,-0.77868 z"
       id="path3965"
       inkscape:connector-curvature="0" />
    <path
       style="fill:#808080;fill-opacity:1;fill-rule:nonzero;stroke:none"
       d="m 206,183.62312 -0.52364,4.00078 3.48068,0.44008 0.80014,-4.60088 z"
       id="path3967"
       inkscape:connector-curvature="0" />
    <path
       style="fill:#808080;fill-opacity:1;fill-rule:nonzero;stroke:none"
       d="m 216,183.18304 3.159,-1.12022 1.80034,-1.70064 2.72052,0.9805 0.32014,4.76092 -2,1.5603 -2.841,0.32006 -2.72052,-1.62178 z"
       id="path3969"
       inkscape:connector-curvature="0" />
    <path
       style="fill:#808080;fill-opacity:1;fill-rule:nonzero;stroke:none"
       d="m 194,156.36218 0.83432,1.536 1.84036,1.12022 1.92036,-0.12 1.08022,-1.36026 L 202,156.36218 z"
       id="path3971"
       inkscape:connector-curvature="0" />
    <path
       style="fill:#808080;fill-opacity:1;fill-rule:nonzero;stroke:none"
       d="m 194,188.36218 3.43482,-1.3384 1.32026,-1.0402 1.68032,0.64012 3.5646,1.73848 z"
       id="path3973"
       inkscape:connector-curvature="0" />
    <path
       style="fill:#808080;fill-opacity:1;fill-rule:nonzero;stroke:none"
       d="m 222.43962,172.0609 1.16022,-0.80014 0,-3.6007 -2.00038,-1.5203 L 220,171.22074 z"
       id="path3975"
       inkscape:connector-curvature="0" />
    <path
       style="fill:#808080;fill-opacity:1;fill-rule:nonzero;stroke:none"
       d="m 192.75392,185.30344 -0.36006,2.44048 2.76052,-1.0802 z"
       id="path3977"
       inkscape:connector-curvature="0" />
    <path
       style="fill:#808080;fill-opacity:1;fill-rule:nonzero;stroke:none"
       d="m 261,156.36218 0,32 2,0 0,-32 z"
       id="path3981"
       inkscape:connector-curvature="0" />
    <path
       style="fill:#808080;fill-opacity:1;fill-rule:nonzero;stroke:none"
       d="m 263,158.36218 12,0 0,2 -12,0 z"
       id="path3983"
       inkscape:connector-curvature="0" />
    <path
       style="fill:#808080;fill-opacity:1;fill-rule:nonzero;stroke:none"
       d="m 263,164.0023 12,0 0,2 -12,0 z"
       id="path3985"
       inkscape:connector-curvature="0"
       sodipodi:nodetypes="ccccc" />
    <path
       style="fill:#808080;fill-opacity:1;fill-rule:nonzero;stroke:none"
       d="m 263,169.36218 12,0 0,2 -12,0 z"
       id="path3987"
       inkscape:connector-curvature="0" />
    <path
       inkscape:connector-curvature="0"
       id="path4001"
       d="m 263,174.36218 12,0 0,2 -12,0 z"
       style="fill:#808080;fill-opacity:1;fill-rule:nonzero;stroke:none" />
    <path
       sodipodi:nodetypes="ccccc"
       inkscape:connector-curvature="0"
       id="path4003"
       d="m 263,180.0023 12,0 0,2 -12,0 z"
       style="fill:#808080;fill-opacity:1;fill-rule:nonzero;stroke:none" />
    <path
       inkscape:connector-curvature="0"
       id="path4005"
       d="m 263,185.36218 12,0 0,2 -12,0 z"
       style="fill:#808080;fill-opacity:1;fill-rule:nonzero;stroke:none" />
    <path
       inkscape:connector-curvature="0"
       id="path4007"
       d="m 283,156.36218 0,32 -2,0 0,-32 z"
       style="fill:#808080;fill-opacity:1;fill-rule:nonzero;stroke:none" />
    <path
       inkscape:connector-curvature="0"
       id="path4009"
       d="m 281,158.36218 -12,0 0,2 12,0 z"
       style="fill:#808080;fill-opacity:1;fill-rule:nonzero;stroke:none" />
    <path
       sodipodi:nodetypes="ccccc"
       inkscape:connector-curvature="0"
       id="path4011"
       d="m 281,164.0023 -12,0 0,2 12,0 z"
       style="fill:#808080;fill-opacity:1;fill-rule:nonzero;stroke:none" />
    <path
       inkscape:connector-curvature="0"
       id="path4013"
       d="m 281,169.36218 -12,0 0,2 12,0 z"
       style="fill:#808080;fill-opacity:1;fill-rule:nonzero;stroke:none" />
    <path
       style="fill:#808080;fill-opacity:1;fill-rule:nonzero;stroke:none"
       d="m 281,174.36218 -12,0 0,2 12,0 z"
       id="path4015"
       inkscape:connector-curvature="0" />
    <path
       style="fill:#808080;fill-opacity:1;fill-rule:nonzero;stroke:none"
       d="m 281,180.0023 -12,0 0,2 12,0 z"
       id="path4017"
       inkscape:connector-curvature="0"
       sodipodi:nodetypes="ccccc" />
    <path
       style="fill:#808080;fill-opacity:1;fill-rule:nonzero;stroke:none"
       d="m 281,185.36218 -12,0 0,2 12,0 z"
       id="path4019"
       inkscape:connector-curvature="0" />
    <g
       id="g3107">
      <path
         inkscape:connector-curvature="0"
         id="path4037"
         d="m 596.15431,557.09375 -3.53125,0.0937 -4.5,1.5 -2.3125,2.15625 1.84375,3.625 c -1.09513,0.49175 -2.10564,0.9375 -2.28125,0.9375 -0.44016,0 -1,0.875 -1,0.875 l 0,1.3125 3.09375,0.15625 0,2.59375 0.3125,2.46875 -0.53125,1.5 -1.4375,0.96875 -2.3125,1.5 -1.75,2.25 -1.65625,3.90625 -1.21875,3.90625 -1.3125,2.28125 -0.96875,0.8125 3.5,-0.90625 1.875,-2.0625 2.84375,-1.3125 1.34375,-0.96875 -1.78125,3.9375 -0.96875,3.28125 0.0937,2.65625 -1.4375,0.0937 -1.96875,-1.09375 0.34375,2 1.96875,1.34375 1.96875,1.125 c 0,0 3.63864,1.08865 3.96875,1.1875 0.33011,0.0989 4.40625,0.1875 4.40625,0.1875 l 4.71875,-0.875 3.53125,-1.625 2.875,-2.34375 1.3125,-4.625 0.25,-1.375 0.5,0.375 1.75,1 -1.0625,-4.375 -0.875,-3 -0.25,-2.03125 -0.96875,-4.59375 -1.34375,-1.84375 -1.1875,-1.1875 0.53125,-1.96875 0.34375,-3.34375 -0.4375,-2.875 -0.21875,-0.46875 1.4375,-0.625 1.75,-1 -0.125,-1.5625 -1.875,-0.40625 -3.28125,0.59375 -2.4375,-3.9375 -1.53125,-0.21875 z m -1.4375,6.25 1.4375,0.28125 1,0.78125 1.09375,0.90625 1.65625,-1.5 1,0 0.875,0.8125 0.65625,2.0625 0,1.78125 -0.5625,2.5625 -0.96875,1.59375 -1,1.28125 1.65625,1.09375 2.40625,2.75 1.21875,5.1875 0.4375,2.84375 -0.875,3.34375 -1,3.0625 -1.4375,1.6875 -2.40625,2.5625 -3.75,1.09375 -1.96875,-0.625 -2.03125,-2.03125 0,-3.1875 1.375,-3.9375 2.53125,-3.46875 0.875,-3.15625 -0.78125,-2.375 -0.65625,-1.78125 0,-1.03125 0.78125,-1.03125 -2.4375,-0.40625 -1.21875,-1.28125 -1.09375,-3.46875 -0.21875,-2.65625 0.84375,-2 0.59375,-1.15625 1.96875,-0.59375 z"
         style="fill:#808080;fill-opacity:1;fill-rule:nonzero;stroke:none" />
      <path
         inkscape:connector-curvature="0"
         id="path4025"
         d="m 595.49706,568.96341 2.53088,0.39578 1.32044,-0.39578 1.32045,-0.49383 -0.74973,2.47115 -0.90083,0.49423 z"
         style="fill:#808080;fill-opacity:1;fill-rule:nonzero;stroke:none" />
      <path
         inkscape:connector-curvature="0"
         id="path4027"
         d="m 595.82718,567.28343 -0.11,-1.18616 -0.66022,0 -0.77026,0.49424 -0.11012,1.08731 0.11012,0.79076 0.77026,0.49383 0.55019,-0.69152 z"
         style="fill:#808080;fill-opacity:1;fill-rule:nonzero;stroke:none" />
      <path
         inkscape:connector-curvature="0"
         id="path4031"
         d="m 600.68938,565.99844 -0.77028,0.98845 0,0.88961 0.77028,0.29655 0.6602,-0.79078 -0.11,-0.79076 z"
         style="fill:#808080;fill-opacity:1;fill-rule:nonzero;stroke:none" />
    </g>
    <path
       style="fill:#808080;fill-opacity:1;fill-rule:nonzero;stroke:none"
       d="m 582.18253,597.92566 2.17791,0.98845 3.09396,1.44807 3.63741,0.58535 2.34456,0 0.08,1.72273 -1.87064,0.69192 -5.39184,-0.39538 -2.75094,-1.38384 -1.2104,-1.285 -0.5502,-0.88961 0,-0.69192 z"
       id="path4033"
       inkscape:connector-curvature="0"
       sodipodi:nodetypes="ccccccccccccc" />
    <path
       style="fill:#808080;fill-opacity:1;fill-rule:nonzero;stroke:none"
       d="m 596.48741,600.69335 3.43169,-1.97692 3.72074,-2.47115 0.88032,0.67059 -0.66024,1.99824 -1.76061,1.48269 -2.64089,1.285 -2.3108,0.1977 -0.77025,-0.1977 z"
       id="path4035"
       inkscape:connector-curvature="0" />
    <path
       style="fill:#808080;fill-opacity:1;fill-rule:nonzero;stroke:none"
       d="m 292.79339,170.95695 -1.93389,-0.87197 -1.93389,1.70215 0,3.71378 1.93389,1.2577 1.93389,-1.2577 z"
       id="path4045"
       inkscape:connector-curvature="0" />
    <path
       style="fill:#808080;fill-opacity:1;fill-rule:nonzero;stroke:none"
       d="m 301.25413,165.18009 -3.86777,1.93389 -3.56561,1.93389 -1.02736,1.93387 -0.66478,4.53255 0.66478,2.47779 1.93388,2.65909 3.86777,1.93387 4.83471,0 4.16994,0 7.25206,-1.93387 10.81767,-1.93389 5.80165,0 0,1.93389 3.86778,0 0,-13.53719 -3.86778,0 0,1.93389 -6.82902,0 -13.29546,-2.6591 -5.01602,-1.20868 -5.07644,0 z m 3.14256,1.20868 2.71952,0.72521 -0.12086,1.93389 -3.74689,0 -2.71954,1.93387 -2.65909,1.93389 -2.05475,0 0,-1.93389 0.18131,-0.7252 4.53253,-3.14256 3.86777,-0.72521 z m 5.80165,1.51085 2.96126,1.14825 -0.30216,1.93387 -2.6591,0 -1.02738,-1.93387 1.02738,-1.14825 z"
       id="path4047"
       inkscape:connector-curvature="0" />
    <path
       style="fill:#808080;fill-opacity:1;fill-rule:nonzero;stroke:none"
       d="m 292.79339,188.36191 0,-3.86776 7.73553,-3.1131 7.73554,0.0193 7.73554,3.09406 0,3.86777 z"
       id="path4049"
       inkscape:connector-curvature="0"
       sodipodi:nodetypes="ccccccc" />
    <path
       inkscape:connector-curvature="0"
       id="path4063"
       d="m 379.20661,170.95695 1.93389,-0.87197 1.93389,1.70215 0,3.71378 -1.93389,1.2577 -1.93389,-1.2577 z"
       style="fill:#808080;fill-opacity:1;fill-rule:nonzero;stroke:none" />
    <path
       inkscape:connector-curvature="0"
       id="path4065"
       d="m 370.74587,165.18009 3.86777,1.93389 3.56561,1.93389 1.02736,1.93387 0.66478,4.53255 -0.66478,2.47779 -1.93388,2.65909 -3.86777,1.93387 -4.83471,0 -4.16994,0 -7.25206,-1.93387 -10.81767,-1.93389 -5.80165,0 0,1.93389 -3.86778,0 0,-13.53719 3.86778,0 0,1.93389 6.82902,0 13.29546,-2.6591 5.01602,-1.20868 5.07644,0 z m -3.14256,1.20868 -2.71952,0.72521 0.12086,1.93389 3.74689,0 2.71954,1.93387 2.65909,1.93389 2.05475,0 0,-1.93389 -0.18131,-0.7252 -4.53253,-3.14256 -3.86777,-0.72521 z m -5.80165,1.51085 -2.96126,1.14825 0.30216,1.93387 2.6591,0 1.02738,-1.93387 -1.02738,-1.14825 z"
       style="fill:#808080;fill-opacity:1;fill-rule:nonzero;stroke:none" />
    <path
       sodipodi:nodetypes="ccccccc"
       inkscape:connector-curvature="0"
       id="path4067"
       d="m 379,188.36218 0,-3.86776 -7.73553,-3.1131 -7.73554,0.0193 -7.73554,3.09406 0,3.86777 z"
       style="fill:#808080;fill-opacity:1;fill-rule:nonzero;stroke:none" />
    <path
       style="fill:#808080;fill-opacity:1;fill-rule:nonzero;stroke:none"
       d="m 192,189.36218 3,0 0,3 -3,0 z"
       id="path4069"
       inkscape:connector-curvature="0"
       sodipodi:nodetypes="ccccc" />
    <path
       style="fill:#808080;fill-opacity:1;fill-rule:nonzero;stroke:none"
       d="m 205,189.36218 0,3 3,0 0,-3 z"
       id="path4075"
       inkscape:connector-curvature="0"
       sodipodi:nodetypes="ccccc" />
    <path
       inkscape:connector-curvature="0"
       id="path4077"
       d="m 197,189.36218 0,3 6,0 0,-3 z"
       style="fill:#808080;fill-opacity:1;fill-rule:nonzero;stroke:none"
       sodipodi:nodetypes="ccccc" />
    <path
       style="fill:#808080;fill-opacity:1;fill-rule:nonzero;stroke:none"
       d="m 192,193.36218 0,3.00001 6,0 0,-3.00001 z"
       id="path4079"
       inkscape:connector-curvature="0"
       sodipodi:nodetypes="ccccc" />
    <path
       inkscape:connector-curvature="0"
       id="path4081"
       d="m 200,193.36218 0,3 6,0 0,-3 z"
       style="fill:#808080;fill-opacity:1;fill-rule:nonzero;stroke:none"
       sodipodi:nodetypes="ccccc" />
    <path
       sodipodi:nodetypes="ccccc"
       inkscape:connector-curvature="0"
       id="path4091"
       d="m 192,197.36218 3,0 0,3 -3,0 z"
       style="fill:#808080;fill-opacity:1;fill-rule:nonzero;stroke:none" />
    <path
       sodipodi:nodetypes="ccccc"
       inkscape:connector-curvature="0"
       id="path4093"
       d="m 205,197.36218 0,3 3,0 0,-3 z"
       style="fill:#808080;fill-opacity:1;fill-rule:nonzero;stroke:none" />
    <path
       sodipodi:nodetypes="ccccc"
       style="fill:#808080;fill-opacity:1;fill-rule:nonzero;stroke:none"
       d="m 197,197.36218 0,3 6,0 0,-3 z"
       id="path4095"
       inkscape:connector-curvature="0" />
    <path
       sodipodi:nodetypes="ccccc"
       inkscape:connector-curvature="0"
       id="path4097"
       d="m 192,201.36218 0,3.00001 6,0 0,-3.00001 z"
       style="fill:#808080;fill-opacity:1;fill-rule:nonzero;stroke:none" />
    <path
       sodipodi:nodetypes="ccccc"
       style="fill:#808080;fill-opacity:1;fill-rule:nonzero;stroke:none"
       d="m 200,201.36218 0,3 6,0 0,-3 z"
       id="path4099"
       inkscape:connector-curvature="0" />
    <g
       id="g3885">
      <path
         id="path3102"
         d="M 560 638.375 C 552.55026 638.375 546.5 644.64301 546.5 652.375 C 546.5 660.10699 552.55026 666.375 560 666.375 C 567.44974 666.375 573.5 660.10699 573.5 652.375 L 573.5 652.25 C 573.44091 644.56183 567.40776 638.375 560 638.375 z M 554 643.125 C 556.19669 643.125 557.98248 644.73403 558 646.71875 L 558 646.75 C 558 648.74603 556.20914 650.375 554 650.375 C 551.79086 650.375 550 648.74603 550 646.75 C 550 644.75397 551.79086 643.125 554 643.125 z M 566 644.375 C 568.44843 644.375 570.44922 645.69629 570.46875 647.34375 L 570.46875 647.375 C 570.46875 649.03185 568.4623 650.375 566 650.375 C 563.5377 650.375 561.53125 649.03185 561.53125 647.375 C 561.53125 645.71815 563.5377 644.375 566 644.375 z M 550 653.375 L 553.40625 654.375 L 558 655.375 L 557.5625 658.375 L 560 658.375 L 560 656.375 L 561 655.9375 L 561 658.375 L 563 658.375 L 563 655.375 L 568 654.375 L 571 653.375 L 567 657.375 L 563.5625 660.875 L 560 662.375 L 556.40625 660.375 L 553 657.78125 L 550 653.375 z "
         style="fill:#808080;stroke:none;stroke-width:1;stroke-linecap:butt;stroke-linejoin:round;stroke-miterlimit:4;stroke-opacity:1;stroke-dasharray:none;stroke-dashoffset:0;fill-opacity:1" />
      <path
         transform="translate(-1.0900879,-1)"
         sodipodi:open="true"
         sodipodi:end="6.2752089"
         sodipodi:start="0"
         d="m 554.63688,647.86218 a 1.5467961,1.5 0 1 1 -5e-5,-0.012"
         sodipodi:ry="1.5"
         sodipodi:rx="1.5467961"
         sodipodi:cy="647.86218"
         sodipodi:cx="553.09009"
         id="path3881"
         style="fill:#808080;fill-opacity:1;fill-rule:nonzero;stroke:none"
         sodipodi:type="arc" />
      <path
         transform="translate(2.5,1.0000088)"
         sodipodi:open="true"
         sodipodi:end="6.2752089"
         sodipodi:start="0"
         d="m 567,646.67383 a 1.5,1.3116543 0 1 1 -5e-5,-0.0105"
         sodipodi:ry="1.3116543"
         sodipodi:rx="1.5"
         sodipodi:cy="646.67383"
         sodipodi:cx="565.5"
         id="path3883"
         style="fill:#808080;fill-opacity:1;fill-rule:nonzero;stroke:none"
         sodipodi:type="arc" />
    </g>
    <path
       inkscape:connector-curvature="0"
       id="path3892"
       d="m 528,641.36218 c -8.27748,0 -15,5.24151 -15,11.70724 0,6.46574 6.72252,11.70724 15,11.70724 8.27748,0 15,-5.2415 15,-11.70724 l 0,-0.10448 c -0.0657,-6.42909 -6.76916,-11.60272 -15,-11.60272 z m -6.66666,3.9721 c 2.44075,0 4.42498,1.34553 4.44444,3.00521 l 0,0.0262 c 0,1.66915 -1.98984,3.03134 -4.44444,3.03134 -2.4546,0 -4.44446,-1.36219 -4.44446,-3.03134 0,-1.66914 1.98986,-3.03134 4.44446,-3.03134 z m 13.33332,1.0453 c 2.72049,0 4.94358,1.10491 4.96529,2.48255 l 0,0.0262 c 0,1.38551 -2.22939,2.50869 -4.96529,2.50869 -2.73588,0 -4.96527,-1.12318 -4.96527,-2.50869 0,-1.3855 2.22939,-2.50869 4.96527,-2.50869 z m -17.77778,7.52607 3.78473,0.83625 5.10417,0.83621 -0.48612,2.5087 2.70834,0 0,-1.67246 1.11112,-0.36586 0,2.03832 2.22222,0 0,-2.5087 5.55554,-0.83621 3.33334,-0.83625 -4.44444,2.82754 -3.33334,1.7442 -4.05161,0.88479 -4.83727,-1.28609 -3.33334,-1.22493 z"
       style="fill:#808080;fill-opacity:1;stroke:none"
       sodipodi:nodetypes="sssscsccsssccccssscccccccccccccccccccc" />
    <path
       transform="translate(-28.636884,0.87669136)"
       sodipodi:open="true"
       sodipodi:end="6.2752089"
       sodipodi:start="0"
       d="m 554.63688,647.86218 a 1.5467961,1.5 0 1 1 -5e-5,-0.012"
       sodipodi:ry="1.5"
       sodipodi:rx="1.5467961"
       sodipodi:cy="647.86218"
       sodipodi:cx="553.09009"
       id="path3894"
       style="fill:#808080;fill-opacity:1;fill-rule:nonzero;stroke:none"
       sodipodi:type="arc" />
    <path
       transform="translate(-34.5,2.3767002)"
       sodipodi:open="true"
       sodipodi:end="6.2752089"
       sodipodi:start="0"
       d="m 567,646.67383 a 1.5,1.3116543 0 1 1 -5e-5,-0.0105"
       sodipodi:ry="1.3116543"
       sodipodi:rx="1.5"
       sodipodi:cy="646.67383"
       sodipodi:cx="565.5"
       id="path3896"
       style="fill:#808080;fill-opacity:1;fill-rule:nonzero;stroke:none"
       sodipodi:type="arc" />
    <path
       sodipodi:nodetypes="ccccccccccccc"
       inkscape:connector-curvature="0"
       id="path3088"
       d="m 545.10202,594.39527 1.8964,1.45739 2.68407,2.11311 3.40932,1.39641 2.28325,0.53265 -0.31347,1.69586 -1.97892,0.24884 -5.16103,-1.60999 -2.36462,-1.97263 -0.88681,-1.52638 -0.33371,-0.99135 0.15719,-0.67382 z"
       style="fill:#808080;fill-opacity:1;fill-rule:nonzero;stroke:none" />
    <path
       inkscape:connector-curvature="0"
       id="path3090"
       d="m 557.79178,600.49373 3.9265,-0.517 4.38235,-0.86344 0.55762,0.95588 -1.37313,1.59481 -2.19331,0.6982 -2.93144,0.17941 -2.21124,-0.6995 -0.63643,-0.47679 z"
       style="fill:#808080;fill-opacity:1;fill-rule:nonzero;stroke:none" />
    <path
       sodipodi:nodetypes="ccccccccccccc"
       inkscape:connector-curvature="0"
       id="path3100"
       d="m 619.46487,599.993 2.38379,0.19451 3.40127,0.31761 3.62129,-0.67799 2.20669,-0.79212 0.65733,1.5944 -1.52687,1.28324 -5.20837,1.44953 -3.05672,-0.37305 -1.57337,-0.8005 -0.81841,-0.65141 -0.23377,-0.65123 z"
       style="fill:#808080;fill-opacity:1;fill-rule:nonzero;stroke:none" />
    <path
       inkscape:connector-curvature="0"
       id="path3103"
       d="m 633,598.36218 2.75176,-2.84824 2.89299,-3.40311 1.03135,0.40121 -0.0823,2.10288 -1.28233,1.91148 -2.18296,1.96474 -2.16619,0.82856 -0.79489,0.0228 z"
       style="fill:#808080;fill-opacity:1;fill-rule:nonzero;stroke:none"
       sodipodi:nodetypes="cccccccccc" />
    <g
       id="g3113"
       transform="translate(-31.908195,0)">
      <path
         style="fill:#808080;fill-opacity:1;fill-rule:nonzero;stroke:none"
         d="m 594.15431,557.09375 -3.53125,0.0937 -4.5,1.5 -2.3125,2.15625 1.84375,3.625 c -1.09513,0.49175 -2.10564,0.9375 -2.28125,0.9375 -0.44016,0 -1,0.875 -1,0.875 l 0,1.3125 3.09375,0.15625 0,2.59375 0.3125,2.46875 -0.53125,1.5 -1.4375,0.96875 -0.3125,1.5 -0.58987,1.98483 -1,2.59615 0,5 0,3 2.41422,3 1.58578,-2 0.56643,-2 -0.56643,-2 0.24612,-1.67473 -1.78125,3.9375 -0.96875,3.28125 0.0937,2.65625 -1.4375,0.0937 -1.96875,-1.09375 0.34375,2 1.96875,1.34375 1.96875,1.125 c 0,0 3.63864,1.08865 3.96875,1.1875 0.33011,0.0989 4.40625,0.1875 4.40625,0.1875 l 4.71875,-0.875 3.53125,-1.625 2.875,-2.34375 1.3125,-4.625 0.25,-1.375 0.85355,-2.80698 1.61913,-0.39324 -0.48968,-1 -0.875,-2 -1.0455,-1.83103 -2.96875,-4.59375 -1.34375,-1.84375 -1.1875,-1.1875 0.53125,-1.96875 0.34375,-3.34375 -0.4375,-2.875 -0.21875,-0.46875 1.4375,-0.625 1.75,-1 -0.125,-1.5625 -1.875,-0.40625 -3.28125,0.59375 -2.4375,-3.9375 -1.53125,-0.21875 z m -1.4375,6.25 1.4375,0.28125 1,0.78125 1.09375,0.90625 1.65625,-1.5 1,0 0.875,0.8125 0.65625,2.0625 0,1.78125 -0.5625,2.5625 -0.96875,1.59375 -1,1.28125 1.65625,1.09375 4.40625,2.75 1.21875,5.1875 0.4375,2.84375 -0.875,3.34375 -1,3.0625 -1.4375,1.6875 -2.40625,2.5625 -3.75,1.09375 -1.96875,-0.625 -2.03125,-2.03125 0,-3.1875 1.375,-3.9375 2.53125,-3.46875 0.875,-3.15625 -0.78125,-2.375 -0.65625,-1.78125 -2,-1.03125 0.78125,-1.03125 -2.4375,-0.40625 -1.21875,-1.28125 -1.09375,-3.46875 -0.21875,-2.65625 0.84375,-2 0.59375,-1.15625 z"
         id="path3115"
         inkscape:connector-curvature="0"
         sodipodi:nodetypes="cccccscccccccccccccccccccccccccccccccccccccccccccccccccccccccccccccccccccccccccccccccccccccccccc" />
      <path
         style="fill:#808080;fill-opacity:1;fill-rule:nonzero;stroke:none"
         d="m 593.49706,568.96341 2.53088,0.39578 1.32044,-0.39578 1.32045,-0.49383 -0.74973,2.47115 -0.90083,0.49423 z"
         id="path3117"
         inkscape:connector-curvature="0"
         sodipodi:nodetypes="ccccccc" />
      <path
         style="fill:#808080;fill-opacity:1;fill-rule:nonzero;stroke:none"
         d="m 593.82718,567.28343 -0.11,-1.18616 -0.66022,0 -0.77026,0.49424 -0.11012,1.08731 0.11012,0.79076 0.77026,0.49383 0.55019,-0.69152 z"
         id="path3119"
         inkscape:connector-curvature="0"
         sodipodi:nodetypes="ccccccccc" />
      <path
         style="fill:#808080;fill-opacity:1;fill-rule:nonzero;stroke:none"
         d="m 598.68938,565.99844 -0.77028,0.98845 0,0.88961 0.77028,0.29655 0.6602,-0.79078 -0.11,-0.79076 z"
         id="path3121"
         inkscape:connector-curvature="0"
         sodipodi:nodetypes="ccccccc" />
    </g>
    <g
       transform="translate(32.17336,0)"
       id="g3123">
      <path
         inkscape:connector-curvature="0"
         id="path3125"
         d="m 598.15431,557.09375 -3.53125,0.0937 -4.5,1.5 -2.3125,2.15625 1.84375,3.625 c -1.09513,0.49175 -2.10564,0.9375 -2.28125,0.9375 -0.44016,0 -1,0.875 -1,0.875 l 0,1.3125 3.09375,0.15625 0,2.59375 0.3125,2.46875 -0.53125,1.5 -1.4375,0.96875 -2.98392,0.081 -5,1 -2,3 -1,3.41566 -0.41513,3.58434 0.88741,1 1.52772,-3 3,-3 3,1 1.32767,2.32527 -1.78125,3.9375 -0.96875,3.28125 0.0937,2.65625 -1.4375,0.0937 -1.96875,-1.09375 0.34375,2 1.96875,1.34375 1.96875,1.125 c 0,0 3.63864,1.08865 3.96875,1.1875 0.33011,0.0989 4.40625,0.1875 4.40625,0.1875 l 4.71875,-0.875 3.53125,-1.625 2.875,-2.34375 1.3125,-4.625 0.25,-1.375 0.5,0.375 1.75,1 -1.0625,-4.375 -0.875,-3 -0.25,-2.03125 -0.26164,-3.79825 -0.0509,-2.63925 -1.1875,-1.1875 0.53125,-1.96875 0.34375,-3.34375 -0.4375,-2.875 -0.21875,-0.46875 1.4375,-0.625 1.75,-1 -0.125,-1.5625 -1.875,-0.40625 -3.28125,0.59375 -2.4375,-3.9375 -1.53125,-0.21875 z m -1.4375,6.25 1.4375,0.28125 1,0.78125 1.09375,0.90625 1.65625,-1.5 1,0 0.875,0.8125 0.65625,2.0625 0,1.78125 -0.5625,2.5625 -0.96875,1.59375 -1,1.28125 1.65625,1.09375 0.40625,2.75 1.21875,5.1875 0.4375,2.84375 -0.875,3.34375 -1,3.0625 -1.4375,1.6875 -2.40625,2.5625 -3.75,1.09375 -1.96875,-0.625 -2.03125,-2.03125 0,-3.1875 1.375,-3.9375 2.53125,-3.46875 0.875,-3.15625 -0.78125,-2.375 -0.65625,-1.78125 0,-1.03125 2.78125,-1.03125 -2.4375,-0.40625 -1.21875,-1.28125 -1.09375,-3.46875 -0.21875,-2.65625 0.84375,-2 0.59375,-1.15625 z"
         style="fill:#808080;fill-opacity:1;fill-rule:nonzero;stroke:none"
         sodipodi:nodetypes="cccccscccccccccccccccccccccccccccccccccccccccccccccccccccccccccccccccccccccccccccccccccccccccccc" />
      <path
         inkscape:connector-curvature="0"
         id="path3127"
         d="m 597.49706,568.96341 2.53088,0.39578 1.32044,-0.39578 1.32045,-0.49383 -0.74973,2.47115 -0.90083,0.49423 z"
         style="fill:#808080;fill-opacity:1;fill-rule:nonzero;stroke:none"
         sodipodi:nodetypes="ccccccc" />
      <path
         inkscape:connector-curvature="0"
         id="path3129"
         d="m 597.82718,567.28343 -0.11,-1.18616 -0.66022,0 -0.77026,0.49424 -0.11012,1.08731 0.11012,0.79076 0.77026,0.49383 0.55019,-0.69152 z"
         style="fill:#808080;fill-opacity:1;fill-rule:nonzero;stroke:none"
         sodipodi:nodetypes="ccccccccc" />
      <path
         inkscape:connector-curvature="0"
         id="path3131"
         d="m 602.68938,565.99844 -0.77028,0.98845 0,0.88961 0.77028,0.29655 0.6602,-0.79078 -0.11,-0.79076 z"
         style="fill:#808080;fill-opacity:1;fill-rule:nonzero;stroke:none"
         sodipodi:nodetypes="ccccccc" />
    </g>
    <g
       id="g3914"
       transform="matrix(1,0,0,0.89389194,0,66.2384)">
      <path
         sodipodi:nodetypes="cccscsc"
         inkscape:connector-curvature="0"
         id="path3133"
         d="m 548,633.36218 24,0 c 0,0 2,-2 2,-6 0,0 -1.97225,-4 -5.48612,-4 -3.51388,0 -17.51388,0 -17.51388,0 0,0 -5,1 -5,4 0,3 2,6 2,6 z"
         style="fill:#808080;fill-opacity:1;stroke:none" />
      <path
         id="path3903"
         d="m 560,611.375 c -9,0 -8,13 -8,13 l 16,0 c 0,0 1,-13 -8,-13 z m 0.5,1 c 0.3125,-0.0235 0.5,0 0.5,0 l 0,1.40625 c 0,0 -2.52079,-0.40625 -4,1.59375 -1.47921,2 -1.40625,3 -1.40625,3 l -1.59375,0 c 0,0 0,-2.99461 2,-4.5 1.5,-1.12904 3.5625,-1.42943 4.5,-1.5 z"
         style="fill:#808080;fill-opacity:1;fill-rule:nonzero;stroke:none"
         inkscape:connector-curvature="0" />
      <path
         sodipodi:nodetypes="cccccc"
         inkscape:connector-curvature="0"
         id="path3905"
         d="m 550,625.36218 -5.43937,-6 0.97226,-3 8.46709,4 0,5 z"
         style="fill:#808080;fill-opacity:1;fill-rule:nonzero;stroke:none" />
      <path
         inkscape:connector-curvature="0"
         id="path3907"
         d="m 563,611.92303 c 0,0 1.90643,-3.12169 4.45322,-1.56085 2.54678,1.56085 3.97747,4 3.97747,4 0,0 3.78425,5 0.17678,11 -3.60747,6 -0.60747,-1 -0.60747,-1 0,0 3,-5 0,-9 -3,-4 -3.62479,-4.99963 -5,-4.49981 -1.37521,0.49981 -2.43587,2.49981 -2.43587,2.49981 z"
         style="fill:#808080;fill-opacity:1;fill-rule:nonzero;stroke:none" />
      <path
         transform="matrix(1,0,0,0.63258252,0,224.99257)"
         sodipodi:open="true"
         sodipodi:end="6.2752089"
         sodipodi:start="0"
         d="m 562,610.36218 c 0,1.10457 -0.89543,2 -2,2 -1.10457,0 -2,-0.89543 -2,-2 0,-1.10457 0.89543,-2 2,-2 1.09834,0 1.99118,0.88574 1.99994,1.98405"
         sodipodi:ry="2"
         sodipodi:rx="2"
         sodipodi:cy="610.36218"
         sodipodi:cx="560"
         id="path3909"
         style="fill:#808080;fill-opacity:1;fill-rule:nonzero;stroke:none"
         sodipodi:type="arc" />
    </g>
    <g
       id="g3921"
       transform="matrix(-0.91194687,0,0,1,1037.6104,0)">
      <path
         style="fill:#808080;fill-opacity:1;stroke:none"
         d="m 548,633.36218 24,0 c 0,0 2,-2 2,-6 0,0 -1.97225,-4 -5.48612,-4 -3.51388,0 -17.51388,0 -17.51388,0 0,0 -5,1 -5,4 0,3 2,6 2,6 z"
         id="path3924"
         inkscape:connector-curvature="0"
         sodipodi:nodetypes="cccscsc" />
      <path
         style="fill:#808080;fill-opacity:1;fill-rule:nonzero;stroke:none"
         d="m 560,611.375 c -9,0 -8,13 -8,13 l 16,0 c 0,0 1,-13 -8,-13 z m 0.5,1 c 0.3125,-0.0235 0.5,0 0.5,0 l 0,1.40625 c 0,0 -2.52079,-0.40625 -4,1.59375 -1.47921,2 -1.40625,3 -1.40625,3 l -1.59375,0 c 0,0 0,-2.99461 2,-4.5 1.5,-1.12904 3.5625,-1.42943 4.5,-1.5 z"
         id="path3926"
         inkscape:connector-curvature="0" />
      <path
         style="fill:#808080;fill-opacity:1;fill-rule:nonzero;stroke:none"
         d="m 550,625.36218 -5.43937,-6 0.97226,-3 8.46709,4 0,5 z"
         id="path3928"
         inkscape:connector-curvature="0"
         sodipodi:nodetypes="cccccc" />
      <path
         style="fill:#808080;fill-opacity:1;fill-rule:nonzero;stroke:none"
         d="m 563,611.92303 c 0,0 1.90643,-3.12169 4.45322,-1.56085 2.54678,1.56085 3.97747,4 3.97747,4 0,0 3.78425,5 0.17678,11 -3.60747,6 -0.60747,-1 -0.60747,-1 0,0 3,-5 0,-9 -3,-4 -3.62479,-4.99963 -5,-4.49981 -1.37521,0.49981 -2.43587,2.49981 -2.43587,2.49981 z"
         id="path3930"
         inkscape:connector-curvature="0" />
      <path
         sodipodi:type="arc"
         style="fill:#808080;fill-opacity:1;fill-rule:nonzero;stroke:none"
         id="path3932"
         sodipodi:cx="560"
         sodipodi:cy="610.36218"
         sodipodi:rx="2"
         sodipodi:ry="2"
         d="m 562,610.36218 c 0,1.10457 -0.89543,2 -2,2 -1.10457,0 -2,-0.89543 -2,-2 0,-1.10457 0.89543,-2 2,-2 1.09834,0 1.99118,0.88574 1.99994,1.98405"
         sodipodi:start="0"
         sodipodi:end="6.2752089"
         sodipodi:open="true"
         transform="matrix(1,0,0,0.63258252,0,224.99257)" />
    </g>
  </g>
</svg>
